<?xml version="1.0" standalone="no"?>
<!DOCTYPE svg PUBLIC "-//W3C//DTD SVG 20010904//EN"
 "http://www.w3.org/TR/2001/REC-SVG-20010904/DTD/svg10.dtd">
<svg version="1.0" xmlns="http://www.w3.org/2000/svg"
 width="351.000000pt" height="351.000000pt" viewBox="0 0 351.000000 351.000000"
 preserveAspectRatio="xMidYMid meet">

<g transform="translate(0.000000,351.000000) scale(0.100000,-0.100000)"
fill="#000000" stroke="none">
<path d="M1415 3165 c-14 -13 -25 -32 -25 -42 0 -28 27 -60 56 -67 67 -17 103
70 48 113 -34 27 -50 26 -79 -4z m76 -11 c11 -13 11 -20 -2 -42 -25 -46 -79
-37 -79 12 0 43 53 63 81 30z"/>
<path d="M1444 3114 c0 -29 14 -27 34 7 12 21 12 22 -1 7 -15 -19 -33 -25 -22
-9 3 5 2 12 -3 15 -4 2 -8 -6 -8 -20z"/>
<path d="M2095 3178 c-44 -25 -48 -76 -9 -107 33 -26 58 -27 84 -1 27 27 25
66 -5 95 -27 28 -40 30 -70 13z m68 -30 c8 -12 7 -24 -1 -42 -21 -46 -92 -28
-92 23 0 37 73 53 93 19z"/>
<path d="M1135 3164 c-13 -10 -21 -31 -25 -67 l-5 -52 -324 -3 c-219 -1 -329
-6 -338 -13 -11 -10 -13 -232 -13 -1270 l0 -1258 30 -21 c16 -12 35 -18 41
-14 7 4 9 3 5 -4 -4 -7 1 -10 14 -9 11 1 20 4 20 7 0 3 17 6 37 7 l38 1 -32
-8 c-18 -4 -41 -14 -50 -21 -15 -12 -16 -12 -8 1 4 8 4 12 0 7 -5 -4 -11 -30
-13 -56 -3 -43 0 -53 27 -84 28 -31 47 -41 101 -52 19 -4 44 14 53 37 4 12 2
15 -8 12 -8 -3 -13 -10 -12 -16 1 -6 -8 -12 -20 -14 -20 -3 -20 -2 5 24 15 15
30 27 33 25 7 -3 -25 95 -35 104 -14 14 -5 22 13 11 11 -7 18 -15 15 -19 -7
-13 23 -4 39 11 9 8 22 20 29 25 15 12 69 14 62 3 -3 -4 -15 -8 -27 -8 -33 0
-67 -28 -67 -55 0 -36 28 -58 64 -51 36 8 45 15 51 44 2 12 7 27 11 34 4 6 3
8 -3 5 -6 -4 -13 0 -16 7 -4 10 0 13 14 11 24 -5 51 4 44 15 -3 5 5 6 17 2 16
-4 18 -7 8 -10 -23 -7 -50 -34 -50 -49 0 -8 12 -27 28 -42 22 -22 35 -27 65
-25 21 2 42 6 47 9 15 9 12 68 -5 92 -10 14 -12 24 -5 28 6 4 9 1 8 -7 -2 -7
3 -12 10 -10 8 1 11 -2 6 -9 -5 -9 -2 -10 9 -6 10 4 24 10 32 13 10 4 15 2 13
-7 -2 -7 6 -15 16 -17 14 -3 17 0 13 11 -4 12 -1 14 11 10 9 -4 20 -11 24 -17
5 -7 8 -3 8 9 0 16 2 17 9 6 8 -12 12 -13 26 -1 13 11 13 15 3 22 -10 7 -10 9
2 5 8 -2 14 -12 14 -21 -1 -11 2 -14 10 -8 15 13 67 21 60 11 -3 -5 -16 -9
-29 -9 -31 0 -42 -33 -21 -65 22 -33 62 -59 81 -51 23 9 19 68 -7 96 -17 18
-18 22 -5 17 10 -4 17 -2 17 5 0 7 5 6 15 -2 8 -7 22 -10 30 -6 9 3 13 2 10
-4 -9 -15 8 -12 33 6 25 17 29 9 8 -15 -24 -27 -29 -66 -11 -85 22 -22 64 -31
84 -19 20 12 23 114 4 110 -6 -1 -11 3 -10 8 1 6 7 8 12 6 25 -8 41 -8 54 3
12 9 12 8 0 -11 -8 -13 -16 -18 -20 -12 -4 7 -9 4 -12 -6 -4 -9 -3 -14 3 -10
6 4 15 -7 21 -24 11 -30 49 -63 49 -42 0 26 -21 61 -37 61 -17 1 -16 2 1 15
24 19 60 20 51 3 -4 -7 0 -5 8 5 13 15 15 16 21 2 3 -8 0 -15 -7 -15 -14 -1
22 -30 36 -30 5 0 6 7 3 16 -4 10 -2 13 6 8 7 -5 9 -2 5 9 -3 8 0 21 8 27 12
10 13 8 10 -9 -2 -14 1 -18 11 -14 8 3 14 11 14 19 0 8 5 14 11 14 5 0 8 -4 4
-9 -3 -6 9 -8 27 -7 18 2 23 1 12 -1 -50 -10 -72 -65 -44 -110 19 -32 80 -73
80 -54 0 6 7 8 15 5 8 -4 15 -1 15 6 0 6 5 8 10 5 6 -3 10 0 11 7 0 7 2 23 5
36 5 27 -19 77 -43 91 -14 7 -13 9 9 8 14 -1 24 -6 21 -12 -3 -5 5 1 16 15
l21 25 -9 -25 c-8 -24 -6 -26 20 -28 16 -1 30 2 30 8 1 5 2 15 3 22 0 6 15 13
31 14 17 2 24 1 18 -2 -18 -8 -16 -34 2 -34 9 0 15 10 16 23 0 12 3 16 6 10 7
-19 27 -16 48 7 10 11 23 20 29 20 6 0 1 -7 -12 -15 -17 -13 -92 -126 -92
-140 0 -2 27 -10 60 -17 36 -7 55 -15 47 -20 -8 -5 -7 -8 6 -8 9 0 17 6 17 13
0 9 2 9 8 -1 11 -17 40 -5 47 19 4 11 11 16 18 12 7 -4 7 0 -1 10 -8 9 -11 21
-7 27 3 5 -1 13 -10 16 -9 4 -14 12 -11 20 3 7 0 15 -7 17 -7 2 -9 7 -6 11 3
3 18 -3 32 -15 15 -11 27 -17 27 -14 0 4 8 1 18 -6 14 -11 15 -11 5 1 -16 17
-17 34 -2 24 8 -5 8 -1 0 13 -9 18 -7 20 14 17 14 -1 27 2 31 7 3 5 11 9 17 9
7 0 6 -4 -3 -10 -13 -8 -13 -12 3 -27 16 -16 17 -16 12 -1 -4 11 0 20 14 27
27 15 29 14 24 -12 -4 -18 5 -32 32 -55 33 -29 41 -32 105 -32 37 0 75 3 84 6
21 8 21 58 0 78 -8 9 -10 16 -4 16 6 0 13 -7 16 -15 4 -8 10 -12 15 -9 5 3 7
9 4 14 -3 4 2 10 10 14 19 7 19 -8 0 -24 -13 -11 -13 -14 2 -26 32 -24 45 -17
40 21 -3 19 -1 32 4 29 5 -3 7 -10 4 -15 -4 -5 -2 -9 4 -9 5 0 11 4 13 10 2 5
12 11 23 13 11 1 26 6 32 10 15 9 8 -15 -15 -50 -7 -12 -11 -27 -8 -32 4 -5 2
-12 -4 -16 -16 -10 -12 -42 6 -49 28 -11 75 -6 90 9 18 18 11 67 -12 86 -8 6
-14 16 -14 22 0 6 9 1 20 -11 37 -39 37 -22 1 23 -13 16 -11 16 10 -2 26 -24
49 -30 49 -13 0 5 10 15 23 21 l22 11 -22 -21 c-13 -12 -23 -32 -23 -45 0 -56
80 -103 129 -77 22 12 28 45 11 56 -11 7 25 45 42 45 5 0 1 11 -8 25 -15 23
-15 24 10 31 14 3 23 11 19 17 -3 6 -1 7 6 3 14 -9 5 -26 -15 -26 -8 0 -14 -6
-14 -14 0 -8 9 -14 19 -13 11 0 18 5 15 9 -6 9 18 48 29 48 4 0 6 -3 4 -7 -3
-5 12 -8 33 -8 l39 0 -2 230 c-1 127 -5 214 -8 195 -4 -19 -6 62 -6 180 1 200
2 206 7 80 4 -74 6 115 6 420 -1 518 0 555 16 554 10 -1 16 3 15 10 -1 6 3 10
10 9 15 -3 8 39 -13 79 -29 56 -104 62 -130 10 -13 -27 -19 -30 -31 -18 -4 5
-3 6 3 3 7 -4 14 3 16 18 5 26 -6 35 -16 13 -2 -7 -5 40 -4 104 0 65 3 116 7
114 4 -3 14 8 23 24 13 23 13 28 2 23 -8 -3 -15 1 -15 8 -1 8 -5 1 -9 -16 -6
-23 -8 -17 -7 30 0 33 2 48 4 33 2 -16 8 -28 13 -28 5 0 7 40 6 90 -2 49 -1
89 3 88 18 -2 21 4 7 18 -9 8 -16 21 -15 27 0 9 2 8 6 0 7 -18 28 -16 43 2 11
13 10 18 -6 30 -10 7 -20 9 -22 4 -2 -5 -10 -9 -18 -9 -8 0 -14 -5 -14 -12 0
-6 -3 -8 -7 -5 -3 4 2 17 13 29 17 19 17 21 2 15 -21 -7 -26 18 -5 26 9 4 9 6
0 6 -7 1 -13 7 -13 15 0 18 31 30 40 16 9 -14 40 -2 40 15 0 7 -6 15 -12 18
-18 5 -48 -3 -48 -14 0 -5 -5 -9 -10 -9 -6 0 -10 6 -9 13 5 41 -3 98 -17 111
-11 12 -36 16 -90 16 l-74 0 0 53 c0 63 -10 80 -41 75 -22 -3 -24 -8 -27 -65
l-3 -63 -400 0 c-342 0 -405 2 -437 16 -20 9 -72 18 -114 21 -62 5 -90 2 -145
-16 -60 -19 -86 -21 -228 -19 -148 3 -160 4 -157 21 5 29 -18 86 -41 102 -27
19 -66 19 -92 -1z m89 -20 c5 -13 4 -14 -7 -6 -15 13 -14 32 -16 -370 l-1
-258 -35 0 -35 0 0 313 c0 230 3 316 12 325 18 18 75 15 82 -4z m1548 -6 c-7
-7 -12 -8 -12 -2 0 6 3 14 7 17 3 4 9 5 12 2 2 -3 -1 -11 -7 -17z m-2 -63 l-8
-40 -1 36 c0 20 2 39 6 42 11 11 11 4 3 -38z m-867 -45 c60 -23 116 -65 113
-85 -1 -8 -12 -29 -25 -45 l-22 -31 -31 38 c-17 21 -35 48 -41 60 -7 17 -19
22 -46 23 -20 0 -52 0 -71 0 -119 1 -110 4 -127 -37 -8 -21 -24 -50 -35 -65
-16 -24 -22 -26 -40 -17 -20 11 -20 10 -5 -11 12 -17 13 -28 5 -46 -6 -13 -17
-24 -25 -24 -7 0 -13 -3 -13 -7 -1 -5 -5 -27 -9 -51 -5 -23 -5 -45 0 -48 5 -3
9 -15 9 -27 0 -12 7 -35 16 -52 14 -27 14 -31 -1 -40 -42 -25 -47 -34 -11 -19
37 15 39 14 62 -7 13 -12 21 -26 18 -31 -3 -5 -2 -7 3 -6 12 4 73 -23 73 -32
0 -4 6 -8 13 -7 63 2 67 -1 67 -50 l0 -48 -43 -2 c-36 -1 -38 0 -17 8 21 7 19
8 -13 4 -21 -2 -35 0 -32 5 3 6 0 7 -8 5 -14 -6 -87 21 -87 32 0 3 8 16 18 27
17 21 17 21 -5 2 -12 -10 -29 -16 -37 -13 -23 9 -83 96 -105 152 -11 28 -20
44 -20 38 -2 -30 41 -120 79 -167 l42 -51 -50 52 c-67 70 -96 144 -95 238 2
102 32 176 102 245 112 112 252 144 394 90z m-830 -21 c-7 -7 -51 -11 -120
-10 -121 1 -174 -6 -152 -20 9 -6 10 -9 2 -9 -7 0 -16 7 -21 16 -10 18 -48 14
-44 -5 1 -7 -2 -10 -8 -6 -6 3 -8 11 -5 16 4 5 -31 9 -84 9 -81 0 -93 -2 -115
-24 -25 -22 -26 -29 -26 -127 0 -96 -2 -106 -22 -124 l-23 -20 150 -5 c149 -5
180 -20 42 -20 -106 0 -115 -4 -120 -54 -3 -37 -4 -36 -5 12 -1 33 -6 51 -12
47 -6 -4 -10 -55 -10 -122 0 -108 -1 -117 -25 -145 l-25 -30 0 316 0 316 317
0 c236 0 314 -3 306 -11z m227 -4 c0 -8 -4 -15 -10 -15 -5 0 -10 7 -10 15 0 8
5 15 10 15 6 0 10 -7 10 -15z m238 10 c-7 -8 -208 -9 -215 -1 -3 3 45 6 107 6
62 0 111 -2 108 -5z m510 -2 c-10 -2 -26 -2 -35 0 -10 3 -2 5 17 5 19 0 27 -2
18 -5z m77 -3 c-3 -5 -13 -10 -21 -10 -8 0 -12 -4 -9 -10 3 -5 2 -10 -4 -10
-14 0 -23 18 -16 30 3 6 17 10 31 10 14 0 22 -4 19 -10z m75 6 c0 -3 -7 -12
-16 -20 -22 -22 -44 -20 -44 4 0 16 7 20 30 20 17 0 30 -2 30 -4z m75 -5 c-6
-5 -22 -13 -37 -16 -22 -6 -28 -4 -28 9 0 12 10 16 37 16 23 0 33 -4 28 -9z
m66 -2 c-16 -6 -28 -6 -35 1 -7 7 1 10 25 9 32 0 33 -1 10 -10z m234 4 c-55
-3 -92 -8 -97 -16 -6 -9 -8 -9 -8 0 0 6 -12 14 -27 16 -16 2 28 4 97 3 97 0
105 -1 35 -3z m132 -11 c9 -16 8 -18 -8 -17 -24 2 -33 11 -24 24 9 16 19 14
32 -7z m240 1 c-13 -13 -20 -15 -25 -7 -4 7 -18 14 -32 17 -14 2 -3 5 25 6 47
1 48 0 32 -16z m-1519 -18 c-11 -9 -78 -14 -78 -6 0 5 8 11 18 13 17 4 66 -2
60 -7z m1454 -5 c-13 -11 -20 -24 -17 -30 5 -8 14 -5 28 7 22 18 22 18 4 -3
-11 -14 -25 -20 -38 -17 -10 3 -19 0 -19 -6 0 -6 -3 -10 -7 -10 -20 3 -35 -3
-52 -20 -19 -19 -19 -19 -14 17 9 69 18 78 81 80 l57 2 -23 -20z m-438 -5 c-4
-8 -10 -15 -15 -15 -4 0 -6 7 -3 15 4 8 10 15 15 15 4 0 6 -7 3 -15z m-729 -4
c3 -5 1 -12 -5 -16 -5 -3 -10 -12 -10 -18 0 -7 9 -1 19 13 19 24 20 24 40 6
20 -18 22 -18 40 -2 18 16 20 16 34 -5 20 -27 5 -54 -36 -68 -59 -21 -158 55
-120 92 9 10 31 9 38 -2z m75 -1 c0 -5 -4 -10 -10 -10 -5 0 -10 5 -10 10 0 6
5 10 10 10 6 0 10 -4 10 -10z m84 -23 c-8 -22 -20 -22 -28 0 -7 18 14 37 27
24 4 -4 5 -15 1 -24z m767 1 c19 -18 45 -46 59 -63 14 -16 -3 -4 -37 28 -34
31 -69 57 -79 57 -23 0 -78 -43 -104 -82 l-22 -33 29 33 c28 32 81 72 96 72
16 0 111 -97 147 -150 39 -58 80 -134 80 -147 -1 -4 -10 9 -21 30 -26 50 -33
47 -10 -6 52 -121 46 -212 -19 -277 -93 -93 -264 -92 -366 2 -76 70 -82 154
-19 286 19 39 32 72 29 72 -3 0 -22 -35 -42 -77 -32 -68 -37 -88 -37 -150 0
-65 3 -76 34 -120 l33 -48 -30 28 c-17 16 -34 28 -39 27 -12 -3 -32 59 -32
101 -2 78 80 251 171 364 76 94 122 107 179 53z m-473 -3 c-8 -17 -15 -22 -21
-16 -7 7 -6 15 3 26 20 24 31 18 18 -10z m58 14 c3 -6 0 -17 -7 -25 -18 -17
-44 -2 -36 20 7 18 33 21 43 5z m-1679 -11 c-9 -7 -18 -29 -20 -48 -3 -29 -4
-27 -5 13 -2 42 0 47 20 47 19 0 20 -1 5 -12z m170 6 c-3 -3 -12 -4 -19 -1 -8
3 -5 6 6 6 11 1 17 -2 13 -5z m79 -103 c-1 -60 -4 -113 -8 -117 -5 -4 -8 45
-8 109 0 65 4 117 8 117 4 0 8 -49 8 -109z m54 104 c0 -2 -9 -9 -20 -15 -16
-9 -20 -8 -20 5 0 8 9 15 20 15 11 0 20 -2 20 -5z m1500 -3 c0 -14 -11 -21
-26 -15 -8 3 -11 9 -8 14 7 11 34 12 34 1z m-1712 -9 c-10 -2 -26 -2 -35 0
-10 3 -2 5 17 5 19 0 27 -2 18 -5z m1632 3 c0 -3 -4 -8 -10 -11 -5 -3 -10 -1
-10 4 0 6 5 11 10 11 6 0 10 -2 10 -4z m-137 -26 c3 -11 1 -18 -4 -14 -5 3 -9
12 -9 20 0 20 7 17 13 -6z m-795 -6 c20 -9 31 -18 24 -21 -6 -3 -10 -8 -7 -13
6 -10 -15 -7 -34 4 -11 7 -13 5 -8 -8 4 -11 3 -15 -4 -10 -21 12 -31 64 -13
64 3 0 21 -7 42 -16z m729 -34 c19 -32 19 -36 4 -51 -9 -9 -27 -19 -41 -22
-22 -5 -28 -2 -38 25 -10 27 -8 34 15 65 28 36 29 36 60 -17z m-1250 -27 c-2
-16 -4 -5 -4 22 0 28 2 40 4 28 2 -13 2 -35 0 -50z m847 -14 c-9 -35 -20 -89
-25 -119 -8 -54 -8 -54 -4 15 2 39 1 63 -2 55 -4 -8 -12 -20 -19 -27 -17 -17
-28 -94 -21 -141 l6 -37 -16 29 c-25 46 -14 138 26 216 40 79 51 94 63 82 6
-6 2 -35 -8 -73z m596 62 c0 -5 -6 -14 -14 -20 -10 -9 -15 -8 -19 3 -3 8 -3
17 0 20 9 9 33 7 33 -3z m60 2 c0 -5 -5 -15 -10 -23 -7 -11 -12 -12 -21 -3 -6
6 -8 16 -5 22 8 12 36 15 36 4z m540 3 c0 -2 -7 -6 -15 -10 -8 -3 -15 -1 -15
4 0 6 7 10 15 10 8 0 15 -2 15 -4z m-656 -15 c3 -4 -3 -16 -13 -25 -15 -13
-20 -14 -23 -4 -10 29 21 54 36 29z m-500 -92 c-5 -51 -10 -66 -14 -49 -6 24
-7 23 -13 -9 -4 -18 -7 -51 -7 -72 0 -21 -5 -41 -11 -45 -14 -9 -5 99 18 199
20 91 37 76 27 -24z m-1059 42 c-6 -5 -25 10 -25 20 0 5 6 4 14 -3 8 -7 12
-15 11 -17z m225 14 c-7 -9 -15 -13 -19 -10 -3 3 1 10 9 15 21 14 24 12 10 -5z
m888 -15 c3 -7 0 -10 -6 -6 -7 4 -13 -21 -17 -68 -12 -121 -25 -154 -19 -46 3
52 8 105 11 118 6 24 24 25 31 2z m1042 16 c0 -3 -4 -8 -10 -11 -5 -3 -10 -1
-10 4 0 6 5 11 10 11 6 0 10 -2 10 -4z m-1868 -23 c10 -9 18 -21 18 -27 0 -6
-7 0 -16 13 -12 17 -22 21 -41 16 -16 -4 -22 -2 -18 5 9 15 36 12 57 -7z m64
-28 c-18 -33 -60 -55 -103 -55 -20 0 -15 16 5 17 37 3 74 24 90 52 23 41 30
28 8 -14z m805 -47 c-4 -109 -19 -94 -20 20 -1 51 3 72 12 72 9 0 11 -23 8
-92z m449 77 c0 -8 -9 -15 -20 -15 -20 0 -26 11 -13 23 12 13 33 7 33 -8z
m-1546 -33 c-15 -25 -81 -55 -102 -47 -14 6 -13 9 9 15 43 12 67 29 74 51 5
16 10 18 18 10 8 -8 8 -17 1 -29z m609 11 c4 -3 0 -15 -9 -25 -13 -14 -20 -15
-31 -7 -10 9 -10 15 -2 25 12 15 31 18 42 7z m1607 -3 c0 -5 -5 -10 -11 -10
-5 0 -7 5 -4 10 3 6 8 10 11 10 2 0 4 -4 4 -10z m-816 -32 c3 -13 6 -39 6 -60
0 -32 -3 -35 -21 -31 -13 4 -18 11 -14 21 4 11 2 12 -8 4 -10 -9 -14 -8 -14 3
0 8 4 15 9 15 4 0 8 5 8 12 0 6 -3 8 -7 5 -3 -4 -12 -2 -20 4 -10 9 -12 5 -8
-22 4 -29 3 -30 -4 -9 -15 41 -12 68 7 73 41 11 60 7 66 -15z m748 0 c-7 -7
-12 -8 -12 -2 0 6 3 14 7 17 3 4 9 5 12 2 2 -3 -1 -11 -7 -17z m-651 -41 c-13
-13 -26 -3 -16 12 3 6 11 8 17 5 6 -4 6 -10 -1 -17z m693 -22 c-4 -8 -11 -15
-16 -15 -6 0 -5 6 2 15 7 8 14 15 16 15 2 0 1 -7 -2 -15z m-1544 1 c0 -3 -4
-8 -10 -11 -5 -3 -10 -1 -10 4 0 6 5 11 10 11 6 0 10 -2 10 -4z m1657 -78 c-2
-18 -4 -6 -4 27 0 33 2 48 4 33 2 -15 2 -42 0 -60z m-1704 46 c-26 -19 -35
-17 -21 5 6 10 18 17 25 14 11 -4 10 -8 -4 -19z m948 -13 c-17 -16 -31 -34
-31 -40 0 -6 -8 -7 -17 -4 -14 5 -9 14 27 44 51 44 68 44 21 0z m-1205 22 c-4
-5 -53 -10 -108 -13 -83 -5 -102 -9 -114 -25 -13 -18 -14 -17 -14 10 0 15 -2
26 -5 23 -3 -3 -6 -56 -7 -117 0 -61 -5 -114 -9 -117 -5 -3 -9 51 -9 120 l0
126 137 0 c75 0 133 -3 129 -7z m1051 -39 c8 -22 -7 -84 -20 -81 -18 3 -27 20
-21 40 4 13 1 17 -12 15 -9 -2 -19 4 -21 12 -3 9 -1 11 4 5 4 -5 15 -10 23
-10 10 0 14 -8 13 -25 -3 -24 -2 -24 12 -5 22 28 14 49 -18 53 -15 2 -27 7
-27 11 0 13 61 -1 67 -15z m843 -13 c0 -5 -7 -12 -16 -15 -14 -5 -15 -4 -4 9
14 17 20 19 20 6z m-2123 -83 c-2 -13 -4 -3 -4 22 0 25 2 35 4 23 2 -13 2 -33
0 -45z m483 52 c0 -5 -7 -10 -15 -10 -8 0 -15 5 -15 10 0 6 7 10 15 10 8 0 15
-4 15 -10z m51 -33 c-13 -13 -26 -3 -16 12 3 6 11 8 17 5 6 -4 6 -10 -1 -17z
m728 -24 c2 -2 2 -6 -2 -9 -6 -6 -77 33 -77 42 0 3 66 -24 79 -33z m-1369 6
c0 -34 -53 -79 -92 -78 l-33 1 32 8 c41 9 58 23 73 60 15 35 20 38 20 9z m291
-27 c-14 -33 -48 -53 -89 -51 -23 1 -22 2 11 11 26 7 45 21 60 43 26 40 35 38
18 -3z m1216 23 c4 -12 -33 -55 -46 -55 -17 0 -19 28 -4 49 15 22 43 25 50 6z
m721 -44 c2 -33 -1 -61 -5 -64 -6 -4 -10 83 -4 116 3 20 6 2 9 -52z m-918 20
c0 -3 -5 -13 -10 -21 -9 -13 -13 -12 -26 5 -11 14 -18 16 -21 8 -3 -7 -10 -13
-16 -13 -7 1 -2 9 10 19 21 17 63 19 63 2z m-698 -23 c-5 -5 -16 -6 -26 -2
-13 5 -14 9 -5 20 9 11 15 12 26 3 8 -7 10 -16 5 -21z m738 0 c0 -13 -23 -5
-28 10 -2 7 2 10 12 6 9 -3 16 -11 16 -16z m-656 -16 c2 -4 1 -14 -4 -22 -7
-11 -12 -12 -21 -3 -6 6 -8 16 -5 22 8 13 23 14 30 3z m586 -4 c0 -9 3 -9 12
0 16 16 41 15 35 0 -2 -7 -11 -12 -21 -10 -9 2 -16 -4 -16 -13 0 -10 -9 -19
-20 -22 -11 -3 -18 -9 -15 -13 5 -9 -63 -36 -115 -46 -19 -4 -38 -12 -42 -18
-4 -6 -8 10 -8 37 0 44 2 47 26 47 14 0 23 -4 19 -10 -3 -5 -1 -10 4 -10 6 0
11 7 11 17 0 12 7 8 25 -13 24 -28 25 -28 42 -9 11 12 12 15 3 7 -13 -9 -18
-7 -28 9 -7 11 -10 24 -7 29 8 13 35 13 35 0 0 -5 -7 -7 -15 -4 -8 4 -15 1
-15 -5 0 -14 16 -14 40 -1 13 7 21 7 25 0 3 -5 10 -10 15 -10 13 0 5 31 -11
41 -11 7 -11 9 4 9 9 0 17 -5 17 -12z m-825 -8 c3 -5 -3 -10 -14 -10 -12 0
-21 5 -21 10 0 6 6 10 14 10 8 0 18 -4 21 -10z m35 -80 c0 -52 -4 -55 -47 -44
-19 5 -23 13 -23 50 0 44 0 44 35 44 l35 0 0 -50z m143 25 c4 -8 1 -17 -5 -21
-7 -4 -8 -3 -4 4 9 16 -7 15 -22 0 -9 -9 -12 -9 -12 3 0 30 33 41 43 14z m886
4 c40 -14 27 -35 -28 -44 -36 -6 -111 14 -111 30 0 22 90 31 139 14z m-734
-97 c-2 -2 -18 4 -35 13 -18 9 -29 12 -25 6 3 -6 20 -18 37 -27 29 -15 30 -16
10 -30 -18 -12 -26 -11 -68 7 l-48 22 29 21 c17 11 41 31 55 43 l25 22 11 -37
c6 -20 10 -38 9 -40z m685 38 c19 0 50 9 69 21 45 27 52 15 13 -23 -29 -30
-36 -32 -94 -31 -83 2 -102 7 -106 27 -8 39 5 46 45 25 20 -10 53 -19 73 -19z
m710 12 c0 -10 -123 -112 -165 -136 -23 -14 -21 -10 10 15 22 19 64 55 95 81
61 52 60 51 60 40z m-1804 -43 c-37 -29 -56 -71 -56 -125 0 -39 5 -51 33 -79
59 -59 180 -58 226 2 12 14 21 21 21 16 0 -15 -42 -50 -73 -62 -57 -22 -143
-6 -189 36 -28 25 -41 86 -28 132 10 39 61 101 82 101 6 0 -1 -9 -16 -21z
m-629 -517 c-1 -97 -2 -17 -2 178 0 195 1 275 2 177 2 -97 2 -257 0 -355z
m740 508 c24 -4 44 -3 45 2 2 5 12 -1 23 -14 19 -22 19 -22 1 -8 -18 13 -19
13 -11 0 4 -8 15 -24 24 -34 12 -14 13 -20 3 -23 -19 -7 -34 -40 -17 -40 7 0
11 6 8 12 -5 15 24 28 32 15 4 -6 1 -10 -4 -10 -6 0 -11 -12 -11 -28 0 -62
-63 -100 -147 -87 -89 13 -127 87 -88 169 17 36 63 68 85 59 8 -3 34 -9 57
-13z m-359 -16 c28 -9 52 -20 52 -24 0 -4 -17 -2 -37 5 -70 23 -103 28 -103
13 -1 -9 -4 -8 -13 4 -7 9 -26 19 -42 21 -17 3 -3 4 30 2 33 -2 84 -11 113
-21z m129 -2 c-8 -8 -20 -11 -27 -7 -16 10 7 35 27 28 13 -5 13 -7 0 -21z
m1063 19 c0 -12 -28 -22 -34 -12 -3 5 -3 11 1 15 9 9 33 7 33 -3z m-1516 -16
c-25 -19 -34 -19 -34 0 0 10 10 15 27 15 26 0 26 -1 7 -15z m1076 5 c0 -5 -9
-14 -20 -20 -15 -8 -20 -8 -20 3 0 8 3 17 7 20 10 10 33 8 33 -3z m367 -27 c4
-12 -35 -29 -44 -19 -8 8 18 37 30 33 6 -2 12 -8 14 -14z m439 -8 c1 -8 -3
-15 -10 -15 -20 0 -26 11 -13 25 13 14 20 12 23 -10z m529 7 c-17 -15 -20 -29
-20 -115 0 -54 -4 -102 -10 -107 -7 -5 -9 27 -8 96 2 104 1 105 -20 98 -32 -9
-13 6 31 27 47 22 52 22 27 1z m-2247 -22 c34 -34 46 -85 25 -106 -8 -8 -11
-14 -7 -14 3 0 1 -7 -7 -16 -11 -13 -14 -12 -25 13 -12 27 -13 26 -7 -15 5
-36 3 -41 -10 -36 -10 3 -24 -2 -34 -12 -17 -17 -18 -16 -24 12 -11 48 -10
164 1 185 15 28 54 23 88 -11z m30 10 c14 -12 27 -31 29 -42 2 -12 2 -20 1
-17 -2 2 -19 21 -37 42 -38 40 -34 49 7 17z m-136 -38 c-4 -41 -6 -43 -31 -38
l-26 5 28 -12 c25 -10 27 -15 27 -71 0 -36 -4 -56 -8 -48 -5 7 -15 10 -23 7
-9 -3 -21 6 -33 26 -28 48 -17 105 29 147 20 19 38 32 39 30 2 -1 1 -22 -2
-46z m358 38 c8 -5 12 -11 9 -14 -3 -3 -14 1 -25 9 -21 16 -8 20 16 5z m501
-4 c5 3 9 1 9 -3 0 -5 -9 -14 -20 -21 -17 -10 -20 -10 -20 6 0 22 13 38 18 23
2 -6 8 -9 13 -5z m334 -2 c-27 -8 -58 -17 -68 -19 -23 -5 -48 -31 -39 -40 4
-4 -4 -2 -17 5 -21 11 -23 10 -18 -4 4 -10 3 -15 -3 -11 -6 3 -10 1 -10 -5 0
-7 -7 -7 -22 1 -21 11 -22 11 -9 -5 12 -14 12 -16 -3 -10 -27 10 -18 29 19 43
19 7 41 18 48 26 7 7 38 17 68 23 81 15 111 12 54 -4z m319 -3 c5 -8 -12 -16
-51 -26 -19 -5 -16 12 5 24 21 13 39 14 46 2z m212 -36 c-7 -29 -26 -34 -26
-7 0 18 20 45 28 37 2 -2 2 -16 -2 -30z m527 16 c-27 -23 -29 -32 -5 -25 14 5
14 3 -2 -10 -11 -9 -14 -16 -8 -16 10 0 10 -5 1 -22 -14 -26 -14 -26 7 -50 14
-14 14 -17 -3 -27 -12 -7 -13 -10 -4 -11 10 0 11 -3 2 -14 -9 -11 -9 -15 0
-18 8 -3 7 -8 -3 -16 -13 -10 -15 2 -16 93 -1 97 1 106 21 120 30 21 37 18 10
-4z m284 13 c-3 -3 -12 -4 -19 -1 -8 3 -5 6 6 6 11 1 17 -2 13 -5z m-622 -33
c-9 -16 -25 -3 -18 15 4 10 9 12 15 6 6 -6 7 -15 3 -21z m40 -36 c-33 -30 -62
-51 -65 -48 -3 3 22 29 55 58 33 30 62 51 65 48 3 -3 -22 -29 -55 -58z m565
45 c0 -5 -9 -10 -21 -10 -11 0 -17 5 -14 10 3 6 13 10 21 10 8 0 14 -4 14 -10z
m-460 -4 c0 -2 -9 -6 -20 -9 -11 -3 -18 -1 -14 4 5 9 34 13 34 5z m-375 -26
c10 -11 23 -20 29 -20 7 0 19 9 29 20 9 11 24 20 32 20 22 0 18 -9 -7 -20 -23
-9 -23 -9 2 -10 14 0 36 -7 50 -16 25 -15 25 -15 -12 -11 -27 2 -38 -1 -38
-10 0 -10 -5 -11 -19 -3 -14 7 -22 7 -27 -1 -4 -8 -9 -7 -15 2 -6 11 -11 11
-21 1 -14 -14 -32 -16 -23 -3 3 6 -14 8 -42 5 -41 -4 -46 -2 -33 10 8 8 31 19
50 24 19 6 27 11 18 11 -10 1 -18 6 -18 11 0 17 26 11 45 -10z m-1385 0 c11
-8 8 -9 -11 -5 -26 6 -27 4 -36 -52 -10 -53 -11 -54 -12 -18 -2 77 18 102 59
75z m1024 -6 c24 -23 20 -33 -19 -50 -46 -19 -48 -18 -41 11 9 34 -3 32 -15
-2 -5 -16 -23 -36 -41 -46 -33 -19 -33 -36 1 -17 18 9 21 8 20 -7 -3 -60 -46
-82 -60 -31 -19 72 38 158 105 158 19 0 42 -7 50 -16z m744 -16 c-8 -12 -20
-24 -26 -26 -7 -2 -2 8 11 22 27 32 34 33 15 4z m-1705 5 c-7 -2 -19 -2 -25 0
-7 3 -2 5 12 5 14 0 19 -2 13 -5z m482 -7 c-16 -7 -32 -11 -35 -9 -8 7 24 23
45 22 15 0 13 -3 -10 -13z m145 -1 c17 -21 7 -29 -19 -15 -12 6 -21 8 -21 5 0
-3 0 -8 0 -12 0 -5 4 -8 9 -8 5 0 12 -3 16 -7 4 -4 -7 -5 -23 -3 -26 3 -30 1
-25 -13 5 -14 3 -15 -8 -4 -22 21 -33 13 -13 -9 19 -22 19 -22 -3 -10 -30 16
-37 14 -18 -5 22 -23 11 -29 -17 -10 -12 9 -27 16 -32 16 -6 0 0 -7 12 -16 12
-8 22 -20 22 -26 0 -6 -8 -4 -18 5 -27 24 -38 21 -16 -5 l19 -21 -30 19 -30
19 18 -27 c9 -16 13 -28 8 -28 -5 0 -19 12 -31 28 l-22 27 21 3 c12 2 19 7 16
12 -3 4 6 11 20 14 14 4 25 10 25 15 0 5 14 12 30 16 17 4 30 11 30 16 0 5 6
9 14 9 7 0 19 7 26 15 16 19 24 19 40 0z m1177 -16 c-11 -29 -12 -29 -15 -9
-3 18 10 38 25 40 1 0 -4 -14 -10 -31z m337 -80 c-4 -13 -10 -181 -13 -374
l-7 -350 -3 285 c-2 157 -3 288 -2 292 8 63 10 150 3 140 -7 -11 -10 -9 -15 7
-3 12 -11 21 -17 21 -8 0 -10 -8 -7 -21 4 -16 3 -19 -5 -11 -16 16 -2 41 21
39 11 0 17 -5 14 -11 -4 -5 -1 -6 7 -1 10 6 10 11 -3 20 -9 7 -14 14 -12 17 3
3 -4 13 -15 23 -11 10 -20 22 -20 26 0 5 18 -11 40 -35 31 -33 38 -48 34 -67z
m-1028 57 c-10 -16 -26 -26 -41 -26 -33 0 -31 8 8 41 38 32 58 23 33 -15z
m-1149 -18 c-2 -13 -4 -5 -4 17 -1 22 1 32 4 23 2 -10 2 -28 0 -40z m829 -5
c-9 -38 -12 -42 -14 -21 -3 23 12 68 22 68 1 0 -2 -21 -8 -47z m1386 21 c-9
-7 -19 -9 -22 -6 -3 4 -9 10 -14 14 -4 4 6 6 23 6 27 -1 29 -2 13 -14z m-839
-10 c24 -5 47 -30 47 -49 0 -3 -13 -11 -30 -16 -16 -6 -29 -14 -28 -17 3 -11
-26 -52 -36 -52 -4 0 -1 12 9 26 21 33 11 44 -13 14 l-18 -23 -12 29 c-21 53
-19 99 3 90 8 -3 15 -1 15 5 0 6 8 8 18 5 9 -3 29 -8 45 -12z m267 12 c0 -2
-7 -7 -16 -10 -8 -3 -12 -2 -9 4 6 10 25 14 25 6z m-644 -22 c-3 -9 -6 -19 -6
-22 0 -4 -10 -18 -23 -32 -26 -29 -57 -35 -57 -11 0 40 14 61 44 70 45 13 49
13 42 -5z m-202 -8 c-3 -8 -12 -12 -20 -9 -21 8 -17 23 6 23 13 0 18 -5 14
-14z m846 0 c0 -2 -7 -7 -16 -10 -8 -3 -12 -2 -9 4 6 10 25 14 25 6z m-460
-31 c-13 -14 -26 -22 -29 -19 -3 3 5 14 19 24 34 27 38 25 10 -5z m1017 -52
c-2 -16 -4 -3 -4 27 0 30 2 43 4 28 2 -16 2 -40 0 -55z m-537 52 c-7 -8 -18
-15 -24 -15 -6 0 -2 7 8 15 25 19 32 19 16 0z m-1560 0 c0 -4 -19 -15 -42 -25
-30 -14 -63 -19 -108 -18 l-65 1 71 7 c39 4 84 15 100 23 31 17 44 20 44 12z
m610 -55 c0 -33 -4 -60 -10 -60 -5 0 -10 19 -10 43 l0 42 -36 -42 c-20 -24
-40 -43 -46 -43 -5 0 14 27 43 60 29 33 54 60 55 60 2 0 4 -27 4 -60z m-260
15 c27 -29 17 -34 -14 -7 -20 17 -20 17 -3 -10 18 -28 9 -39 -11 -15 -11 13
-12 57 -2 57 4 0 17 -11 30 -25z m-250 -22 c3 -3 -6 -2 -20 1 -20 5 -33 -1
-64 -34 -22 -23 -49 -46 -60 -52 -12 -6 6 16 39 49 51 52 63 59 80 50 11 -5
22 -12 25 -14z m1447 -25 c29 -29 53 -56 53 -61 0 -14 -50 -75 -77 -92 -18
-12 -28 -14 -36 -6 -8 8 -7 11 4 11 21 0 89 69 89 90 0 23 -20 39 -39 33 -25
-9 -91 -75 -91 -92 0 -9 -15 0 -41 24 l-41 40 59 52 c32 29 60 53 63 53 2 0
28 -23 57 -52z m178 32 c3 -5 -1 -10 -10 -10 -9 0 -13 5 -10 10 3 6 8 10 10
10 2 0 7 -4 10 -10z m-2195 -35 c-5 -6 -8 -14 -5 -16 2 -3 -4 -5 -14 -5 -10 0
-18 5 -17 11 3 21 17 34 32 28 10 -4 12 -9 4 -18z m727 13 c-7 -4 -35 -8 -63
-8 -51 0 -52 -1 -58 -34 -7 -35 -40 -86 -56 -86 -5 0 1 16 15 35 13 20 29 50
34 68 11 32 12 32 75 32 36 0 59 -3 53 -7z m428 -8 c10 -11 16 -20 13 -20 -3
0 -13 9 -23 20 -10 11 -16 20 -13 20 3 0 13 -9 23 -20z m-945 6 c0 -2 -7 -7
-16 -10 -8 -3 -12 -2 -9 4 6 10 25 14 25 6z m840 -16 c0 -11 -4 -20 -9 -20 -7
0 -8 17 -2 38 4 10 11 -2 11 -18z m80 -1 c0 -5 -4 -9 -10 -9 -5 0 -10 7 -10
16 0 8 5 12 10 9 6 -3 10 -10 10 -16z m494 12 c3 -5 -3 -11 -14 -14 -20 -5
-26 3 -13 16 9 10 21 9 27 -2z m109 -6 c-3 -9 -8 -14 -10 -11 -3 3 -2 9 2 15
9 16 15 13 8 -4z m580 -2 c26 -3 47 -9 47 -13 0 -9 -100 9 -120 22 -12 7 -10
8 5 3 11 -4 41 -9 68 -12z m-1993 -14 c0 -6 -4 -7 -10 -4 -5 3 -10 11 -10 16
0 6 5 7 10 4 6 -3 10 -11 10 -16z m1099 -16 c-18 -21 -35 -40 -36 -42 -2 -2
-3 0 -3 6 0 13 55 73 66 73 4 0 -8 -17 -27 -37z m731 23 c0 -19 -14 -28 -34
-20 -13 5 -14 9 -5 20 15 18 39 18 39 0z m-1915 -6 c3 -5 2 -10 -4 -10 -5 0
-13 5 -16 10 -3 6 -2 10 4 10 5 0 13 -4 16 -10z m1309 -8 c3 -5 -6 -19 -19
-30 -19 -17 -30 -20 -49 -12 -33 12 -40 27 -19 39 22 13 80 14 87 3z m-1410
-17 c-4 -8 -10 -12 -15 -9 -14 8 -10 24 6 24 9 0 12 -6 9 -15z m81 5 c3 -6 -1
-7 -9 -4 -18 7 -21 14 -7 14 6 0 13 -4 16 -10z m2262 -22 c-3 -7 -5 -2 -5 12
0 14 2 19 5 13 2 -7 2 -19 0 -25z m88 -355 c-4 -214 -11 -525 -15 -693 -8
-305 -8 -305 -4 89 2 217 4 529 4 693 0 211 3 298 11 298 8 0 9 -107 4 -387z
m-2485 373 c0 -2 -28 -31 -62 -65 -40 -38 -66 -56 -73 -50 -12 12 93 119 117
119 10 0 18 -2 18 -4z m1085 -5 l-90 -6 -6 -60 -7 -60 2 63 1 62 -67 0 c-48 0
-68 -4 -68 -13 0 -7 34 -43 75 -81 41 -38 75 -74 75 -80 0 -6 -37 27 -83 72
l-83 83 -69 -81 c-37 -44 -72 -80 -77 -80 -4 0 -8 -3 -8 -7 0 -5 46 -8 103 -8
161 0 178 -12 23 -16 -76 -2 -142 -2 -146 1 -4 3 35 53 88 113 l95 107 166 -2
c137 -1 150 -3 76 -7z m858 -33 l-18 -30 -3 28 c-2 15 2 30 9 35 24 14 30 -2
12 -33z m-1537 -43 c39 -19 102 -43 140 -55 42 -12 53 -18 29 -14 -81 12 -233
78 -285 124 l-25 22 35 -21 c19 -12 67 -37 106 -56z m686 -28 l-82 -82 68 -70
67 -70 -65 63 c-36 34 -68 62 -71 62 -3 0 -51 -46 -107 -102 -55 -57 -103
-100 -106 -98 -2 3 79 92 182 198 102 105 188 189 191 187 3 -3 -32 -43 -77
-88z m290 66 c28 -26 39 -51 17 -37 -6 3 -21 -6 -34 -22 l-22 -28 -8 23 c-7
24 1 91 12 91 4 0 20 -12 35 -27z m138 -1 c0 -5 -9 -18 -20 -30 -17 -18 -25
-20 -40 -12 -25 13 -25 18 1 46 17 18 26 21 40 13 11 -5 19 -13 19 -17z m775
18 c3 -5 7 -45 8 -89 2 -71 0 -82 -22 -105 -29 -31 -71 -41 -115 -26 -49 16
-67 41 -73 101 -4 46 -2 58 17 82 13 16 32 33 44 37 29 12 134 12 141 0z
m-1372 -7 c-7 -2 -21 -2 -30 0 -10 3 -4 5 12 5 17 0 24 -2 18 -5z m40 -5 c-4
-7 -8 -19 -8 -27 0 -8 -7 -17 -15 -19 -13 -4 -13 -3 -2 11 11 13 10 15 -6 10
-11 -2 -23 0 -26 6 -4 7 1 11 13 11 11 0 23 5 26 10 3 6 11 10 16 10 6 0 7 -6
2 -12z m822 -28 c37 -37 38 -40 17 -40 -13 0 -43 -19 -73 -47 l-50 -46 -29 28
-30 29 57 58 c32 32 60 58 63 58 3 -1 23 -19 45 -40z m118 -1 c-5 -17 -39 -36
-48 -27 -3 2 6 18 18 35 22 32 39 27 30 -8z m-1608 1 c2 -4 -13 -2 -35 3 -21
6 -37 14 -34 18 5 9 61 -8 69 -21z m435 10 c-20 -13 -33 -13 -25 0 3 6 14 10
23 10 15 0 15 -2 2 -10z m870 -5 c-7 -8 -16 -12 -21 -9 -13 8 -1 24 18 24 13
0 13 -3 3 -15z m-1354 -44 c70 -32 132 -106 155 -183 5 -20 4 -28 -5 -28 -6 0
-17 19 -23 43 -26 95 -127 167 -235 167 -93 0 -171 -42 -214 -116 -86 -147 14
-333 189 -351 104 -11 195 39 243 132 25 47 44 69 44 50 0 -11 -33 -70 -56
-100 -29 -38 -118 -92 -166 -100 -51 -10 -144 14 -197 50 -57 38 -101 108
-104 163 -1 44 -17 48 -17 4 0 -15 -5 -34 -10 -42 -7 -11 -10 -2 -10 33 0 33
5 49 15 53 8 4 15 13 15 21 0 71 62 157 142 197 66 33 170 36 234 7z m1215 -8
c13 -14 18 -23 11 -19 -8 5 -23 -1 -38 -15 -13 -12 -24 -17 -24 -11 0 6 -7 9
-15 6 -20 -8 -19 3 6 37 25 36 29 36 60 2z m-580 -30 c10 -12 5 -11 -18 6 -18
12 -33 24 -33 27 0 9 37 -15 51 -33z m-74 5 c-3 -8 -6 -5 -6 6 -1 11 2 17 5
13 3 -3 4 -12 1 -19z m1000 -12 c-26 -39 -84 -79 -104 -71 -15 6 -11 13 27 47
66 59 108 72 77 24z m43 8 c0 -17 -16 -43 -50 -77 -47 -50 -50 -51 -67 -34
-10 10 -13 17 -5 17 18 0 93 71 103 97 11 30 19 29 19 -3z m-1615 -3 c47 -21
112 -89 121 -127 4 -15 2 -35 -5 -45 -13 -22 -15 -79 -2 -79 17 0 0 -38 -35
-78 -115 -135 -338 -96 -393 67 -14 42 -15 127 0 96 8 -18 9 -18 8 5 -2 41 1
51 10 46 5 -4 7 2 5 11 -3 10 6 29 18 43 13 14 21 21 18 15 -3 -6 2 -3 12 7 9
10 21 18 26 18 5 0 12 6 15 14 11 29 145 33 202 7z m1815 -6 c-7 -9 -15 -13
-18 -10 -3 2 1 11 8 20 7 9 15 13 18 10 3 -2 -1 -11 -8 -20z m-1176 -14 c6
-10 -24 -25 -32 -16 -3 3 1 5 8 5 9 0 7 7 -6 21 -19 22 -19 22 3 10 12 -6 24
-15 27 -20z m291 9 c-10 -11 -21 -17 -24 -14 -3 3 3 12 13 20 28 20 32 17 11
-6z m-395 -10 c0 -14 -6 -20 -22 -19 -17 1 -19 2 -5 6 9 2 17 11 17 19 0 8 2
14 5 14 3 0 5 -9 5 -20z m33 -5 c-3 -9 -8 -14 -10 -11 -3 3 -2 9 2 15 9 16 15
13 8 -4z m404 -7 c-3 -8 -6 -5 -6 6 -1 11 2 17 5 13 3 -3 4 -12 1 -19z m54 5
c13 -16 12 -17 -3 -4 -10 7 -18 15 -18 17 0 8 8 3 21 -13z m-843 -2 c10 -6 7
-10 -12 -13 -15 -3 -31 0 -37 8 -9 11 -7 14 12 14 13 0 30 -4 37 -9z m862 -37
c0 -2 -28 -4 -62 -3 -40 1 -54 3 -39 8 23 6 101 3 101 -5z m350 7 c0 -5 -7
-11 -15 -15 -15 -5 -20 5 -8 17 9 10 23 9 23 -2z m396 -2 c3 -6 0 -17 -8 -25
-12 -12 -17 -12 -33 1 -18 13 -18 14 -2 15 9 0 17 5 17 10 0 13 17 13 26 -1z
m-1448 -89 c-4 -27 -2 -28 28 -23 17 3 34 1 37 -4 10 -16 -10 -35 -39 -39 -16
-1 -39 -15 -52 -29 -19 -23 -23 -24 -29 -9 -3 9 -1 30 5 46 5 15 6 26 1 22 -5
-3 -9 1 -9 10 0 8 -5 16 -12 18 -7 3 -12 24 -13 49 l0 45 43 -29 c37 -25 43
-34 40 -57z m195 36 c-4 -20 -8 -22 -18 -13 -9 8 -9 14 -2 19 6 3 -1 8 -14 11
-20 4 -19 4 7 6 28 1 31 -2 27 -23z m377 14 c-8 -5 -22 -10 -30 -10 -13 0 -13
1 0 10 8 5 22 10 30 10 13 0 13 -1 0 -10z m120 6 c0 -3 -4 -8 -10 -11 -5 -3
-10 -1 -10 4 0 6 5 11 10 11 6 0 10 -2 10 -4z m-473 -38 c-3 -7 -5 -2 -5 12 0
14 2 19 5 13 2 -7 2 -19 0 -25z m380 12 c2 -26 -14 -35 -33 -19 -13 11 -13 14
8 25 13 8 23 13 23 14 1 0 1 -9 2 -20z m543 -52 c0 -8 -5 -19 -12 -26 -9 -9
-19 -5 -45 20 l-33 32 21 22 21 23 24 -29 c13 -15 24 -34 24 -42z m-847 30
c-15 -15 -29 -25 -32 -22 -3 3 5 14 18 25 25 21 21 25 -9 9 -16 -8 -18 -8 -14
5 4 9 17 14 35 13 l29 -2 -27 -28z m567 24 c0 -4 -17 -25 -39 -46 -49 -48 -68
-30 -20 20 31 32 59 44 59 26z m125 -13 c-10 -15 -25 -10 -19 6 4 8 10 12 15
9 5 -3 7 -10 4 -15z m373 -2 c-7 -8 -23 -19 -36 -26 -35 -19 -27 6 10 29 35
21 49 19 26 -3z m-1193 -7 c10 -11 16 -20 13 -20 -3 0 -13 9 -23 20 -10 11
-16 20 -13 20 3 0 13 -9 23 -20z m242 -97 c-2 -21 -4 -4 -4 37 0 41 2 58 4 38
2 -21 2 -55 0 -75z m-343 89 c2 -4 -10 -9 -27 -10 -24 -2 -28 0 -17 8 18 12
37 13 44 2z m156 -6 c0 -2 -7 -7 -16 -10 -8 -3 -12 -2 -9 4 6 10 25 14 25 6z
m841 -36 l28 -21 -17 -37 c-9 -20 -17 -39 -19 -41 -1 -2 -21 11 -43 29 l-41
33 27 28 c15 16 30 29 32 29 2 0 17 -9 33 -20z m678 -25 c0 -5 -4 -3 -9 5 -5
8 -9 22 -9 30 0 16 17 -16 18 -35z m-1869 25 c0 -9 -21 -14 -42 -11 -4 0 -19
-4 -33 -9 -19 -7 -25 -6 -25 4 0 7 3 16 7 19 10 11 93 8 93 -3z m1729 -19 c29
-15 109 -89 111 -104 9 -44 9 -155 0 -187 -14 -51 -88 -135 -138 -156 -107
-44 -246 11 -305 121 -30 56 -30 164 0 220 63 118 213 166 332 106z m-1447
-64 c3 -37 1 -70 -3 -73 -5 -3 -9 30 -9 72 0 93 6 94 12 1z m39 -30 c-8 -8
-11 4 -11 39 0 66 14 80 18 19 2 -26 -2 -53 -7 -58z m343 62 c-3 -5 -14 -9
-25 -9 -11 0 -18 4 -14 10 3 5 13 6 23 3 15 -6 15 -5 3 10 -12 16 -16 16 -31
2 -9 -8 -20 -15 -24 -15 -5 0 2 9 15 19 22 18 26 18 41 4 10 -9 15 -20 12 -24z
m700 6 c-15 -20 -29 -33 -31 -31 -7 7 36 66 48 66 6 0 -2 -16 -17 -35z m-474
-32 c-34 -24 -50 -25 -50 -2 0 15 7 19 37 19 l37 0 -24 -17z m-382 0 c-10 -2
-26 -2 -35 0 -10 3 -2 5 17 5 19 0 27 -2 18 -5z m165 0 c-18 -2 -48 -2 -65 0
-18 2 -4 4 32 4 36 0 50 -2 33 -4z m252 -23 c-16 -16 -31 -28 -33 -25 -7 7 39
55 52 55 5 0 -3 -13 -19 -30z m179 14 c4 -10 2 -13 -7 -8 -9 6 -9 5 0 -8 17
-20 5 -30 -19 -17 -18 10 -18 9 -8 -11 11 -20 10 -21 -12 -15 -34 11 -34 13
-3 45 33 34 40 36 49 14z m-1009 -54 c-10 -11 -20 -18 -23 -15 -7 6 18 35 31
35 5 0 2 -9 -8 -20z m120 11 c3 -5 1 -13 -5 -16 -15 -9 -43 3 -35 15 8 13 32
13 40 1z m-765 -21 c6 -11 8 -20 6 -20 -3 0 -10 9 -16 20 -6 11 -8 20 -6 20 3
0 10 -9 16 -20z m673 5 c-3 -9 -8 -14 -10 -11 -3 3 -2 9 2 15 9 16 15 13 8 -4z
m-722 -467 c2 -257 0 -471 -4 -474 -4 -4 -7 208 -7 471 0 263 2 476 4 474 3
-2 6 -214 7 -471z m1909 462 c0 -5 -4 -10 -10 -10 -5 0 -10 5 -10 10 0 6 5 10
10 10 6 0 10 -4 10 -10z m-1070 -95 c-22 -24 -29 -25 -132 -25 -65 0 -107 -4
-103 -9 3 -5 1 -12 -5 -16 -5 -3 -15 -16 -21 -28 -7 -16 -1 -12 20 11 41 43
49 41 14 -4 -22 -29 -28 -49 -30 -97 -2 -34 -8 -66 -13 -71 -7 -7 -10 36 -10
127 l0 136 148 3 c81 2 149 2 151 0 3 -1 -6 -13 -19 -27z m1048 19 c-14 -14
-43 -17 -185 -17 l-168 -1 145 -5 145 -5 -155 -6 -155 -5 -3 -81 c-2 -66 -7
-85 -22 -99 -20 -18 -20 -17 -20 93 0 61 -3 117 -6 126 -5 14 18 16 217 16
206 0 222 -1 207 -16z m-499 -21 l-32 -28 -191 0 c-106 -1 -197 -5 -204 -9 -9
-5 -12 -98 -12 -379 0 -354 -1 -373 -20 -397 -19 -25 -20 -24 -20 408 l0 432
256 0 256 0 -33 -27z m571 -10 c0 -36 30 -108 66 -163 13 -19 10 -17 -10 5
-49 55 -98 195 -67 195 6 0 11 -16 11 -37z m-1887 20 c4 -3 -2 -13 -14 -21
-24 -17 -37 -9 -19 13 14 16 23 19 33 8z m2525 -54 c-3 -8 -7 -3 -11 10 -4 17
-3 21 5 13 5 -5 8 -16 6 -23z m-2448 3 c0 -13 -12 -22 -22 -16 -10 6 -1 24 13
24 5 0 9 -4 9 -8z m610 5 c0 -2 -12 -14 -27 -28 l-28 -24 24 28 c23 25 31 32
31 24z m47 -59 c-2 -13 -4 -3 -4 22 0 25 2 35 4 23 2 -13 2 -33 0 -45z m-304
45 c4 -3 -2 -13 -14 -21 -23 -16 -32 -12 -23 12 6 16 25 21 37 9z m540 -10
l-52 -4 -4 -57 -3 -57 -2 63 -2 62 58 -2 57 -2 -52 -3z m105 0 c-10 -2 -26 -2
-35 0 -10 3 -2 5 17 5 19 0 27 -2 18 -5z m145 0 c-24 -2 -62 -2 -85 0 -24 2
-5 4 42 4 47 0 66 -2 43 -4z m-1048 -13 c-16 -4 -39 -11 -50 -15 -20 -7 -20
-6 -1 9 11 9 34 16 50 15 l31 -1 -30 -8z m1360 -20 c-16 -16 -34 -30 -39 -30
-10 1 53 59 63 60 3 0 -8 -13 -24 -30z m-1507 7 c9 -10 5 -13 -18 -11 -24 2
-31 -3 -36 -23 -5 -17 -10 -21 -17 -14 -7 7 -7 18 1 36 13 28 52 34 70 12z
m177 -14 c-16 -3 -34 -9 -40 -15 -7 -8 -6 -9 3 -4 6 4 12 3 12 -3 0 -5 8 -12
18 -14 9 -2 -1 -3 -22 -1 -48 5 -51 7 -31 28 10 10 31 15 53 15 34 -2 35 -2 7
-6z m150 -2 c3 -5 -4 -12 -15 -16 -12 -4 -18 -11 -14 -18 5 -9 3 -9 -6 0 -11
10 -11 15 0 28 14 17 26 19 35 6z m1198 -6 c-3 -9 -8 -14 -10 -11 -3 3 -2 9 2
15 9 16 15 13 8 -4z m224 -15 c-2 -23 -10 -17 -12 10 -1 10 2 17 6 14 4 -2 7
-13 6 -24z m-1176 -4 c-20 -22 -67 -34 -55 -14 3 4 12 4 21 1 13 -5 15 -2 10
11 -4 9 -3 15 1 12 4 -2 14 -1 22 5 25 15 25 10 1 -15z m109 15 c0 -6 -4 -13
-10 -16 -5 -3 -10 -11 -10 -16 0 -6 5 -7 10 -4 18 11 11 -1 -12 -21 -19 -15
-20 -16 -9 -1 9 11 10 17 2 17 -10 0 -15 -13 -12 -32 0 -4 -12 -14 -28 -22
-16 -9 -31 -25 -34 -37 -5 -20 -8 -21 -24 -8 -16 13 -17 12 -5 -2 10 -13 10
-19 -2 -28 -9 -7 -17 -8 -20 -2 -3 5 -1 12 4 14 7 4 6 5 0 4 -7 -2 -11 -7 -11
-12 0 -6 -8 -18 -16 -27 -9 -10 -12 -18 -8 -18 5 0 4 -5 -3 -12 -7 -7 -12 -17
-12 -23 0 -7 46 34 102 89 104 103 86 76 -33 -49 l-67 -70 0 -74 1 -74 78 84
c43 46 78 80 79 74 0 -7 3 -7 8 0 4 6 16 16 27 24 11 8 -27 -33 -85 -91 -76
-79 -105 -114 -107 -136 -5 -43 27 -49 63 -11 25 26 25 34 2 30 -13 -2 -9 4
17 29 l25 23 0 -22 c0 -14 -20 -43 -51 -74 -29 -29 -46 -44 -39 -34 10 14 10
17 -4 17 -12 0 -16 -9 -16 -32 1 -33 2 -31 102 72 55 58 97 98 93 90 -10 -18
-177 -204 -187 -208 -5 -2 -8 -24 -8 -48 0 -31 4 -43 11 -38 6 3 3 -6 -7 -22
-19 -28 -19 -25 -22 236 l-2 264 102 103 c98 99 118 114 118 94z m896 -33 c-8
-40 -20 -48 -71 -47 l-40 2 43 7 c45 7 62 21 62 53 0 9 3 17 6 17 4 0 4 -14 0
-32z m-869 -10 c-3 -7 -5 -2 -5 12 0 14 2 19 5 13 2 -7 2 -19 0 -25z m-302 1
c-8 -12 -35 -12 -35 0 0 11 22 20 33 14 4 -2 5 -9 2 -14z m692 -11 c-3 -7 -5
-2 -5 12 0 14 2 19 5 13 2 -7 2 -19 0 -25z m63 28 c0 -2 -7 -7 -16 -10 -8 -3
-12 -2 -9 4 6 10 25 14 25 6z m696 -23 c-10 -10 -19 5 -10 18 6 11 8 11 12 0
2 -7 1 -15 -2 -18z m-109 -18 c-4 -8 -11 -15 -17 -15 -6 0 -6 7 2 20 14 22 24
19 15 -5z m-1040 -128 c-2 -23 -3 -1 -3 48 0 50 1 68 3 42 2 -26 2 -67 0 -90z
m986 116 c-13 -2 -33 -2 -45 0 -13 2 -3 4 22 4 25 0 35 -2 23 -4z m794 -415
c-1 -79 -3 -15 -3 142 0 157 2 221 3 143 2 -79 2 -207 0 -285z m-1544 405
l-52 -4 -3 -42 -3 -42 -5 48 -5 47 60 -2 60 -2 -52 -3z m140 0 c-7 -2 -21 -2
-30 0 -10 3 -4 5 12 5 17 0 24 -2 18 -5z m110 0 c-18 -2 -48 -2 -65 0 -18 2
-4 4 32 4 36 0 50 -2 33 -4z m-810 -29 c9 -6 -39 -10 -119 -11 -74 0 -134 3
-134 7 0 18 222 21 253 4z m1505 9 c-15 -2 -35 -14 -43 -26 -8 -12 -15 -16
-15 -10 0 21 31 43 58 42 l27 -2 -27 -4z m-1948 -13 c0 -5 -4 -10 -10 -10 -5
0 -10 5 -10 10 0 6 5 10 10 10 6 0 10 -4 10 -10z m1157 -37 c-3 -10 -5 -4 -5
12 0 17 2 24 5 18 2 -7 2 -21 0 -30z m813 28 c0 -10 -24 -21 -47 -21 -13 0
-13 3 -3 15 13 16 50 21 50 6z m-719 -34 c-10 -9 -11 -8 -5 6 3 10 9 15 12 12
3 -3 0 -11 -7 -18z m590 -3 c-19 -14 -47 -15 -197 -10 -99 3 -174 1 -174 -4 0
-5 8 -11 18 -14 9 -3 5 -4 -10 -2 l-28 3 0 -96 c0 -53 -5 -103 -10 -111 -7
-10 -10 23 -10 102 0 64 -3 123 -6 132 -5 14 18 16 217 16 208 0 222 -1 200
-16z m-571 -19 c-7 -8 -18 -15 -24 -15 -6 0 -2 7 8 15 25 19 32 19 16 0z
m-1074 -10 c-12 -9 -43 -14 -90 -13 -39 0 -76 0 -82 -1 -8 -1 -11 -31 -11 -87
0 -50 -5 -90 -12 -97 -8 -8 -11 18 -11 101 l0 112 113 0 c99 -1 110 -2 93 -15z
m277 4 c-6 -6 -32 -11 -57 -12 -35 0 -43 -3 -35 -13 8 -9 5 -11 -10 -7 -12 3
-19 8 -17 12 3 4 -11 7 -30 7 -19 0 -34 -4 -34 -9 0 -4 -4 -6 -8 -3 -5 3 -9
-36 -9 -85 0 -54 -5 -95 -12 -102 -8 -8 -11 19 -11 106 l0 117 117 0 c86 0
114 -3 106 -11z m117 7 c0 -2 -8 -10 -17 -17 -16 -13 -17 -12 -4 4 13 16 21
21 21 13z m110 -36 c0 -5 -5 -10 -11 -10 -5 0 -8 -3 -6 -7 2 -5 -6 -19 -20
-33 l-24 -25 11 30 c13 34 29 55 41 55 5 0 9 -4 9 -10z m1716 -2 c-11 -6 -38
-10 -60 -10 -25 1 -47 -4 -60 -15 -12 -10 -15 -11 -8 -3 41 47 -33 27 -88 -24
-30 -28 -37 -31 -20 -11 14 16 28 31 33 33 4 2 7 7 7 12 0 11 -111 11 -126 0
-7 -7 -15 -7 -18 -2 -3 5 -23 6 -45 2 -30 -5 -44 -3 -62 11 -23 18 -18 19 221
18 186 0 240 -2 226 -11z m-2076 -1 c0 -2 -15 -13 -32 -26 l-33 -22 28 25 c26
24 37 31 37 23z m683 -4 c-18 -2 -48 -2 -65 0 -18 2 -4 4 32 4 36 0 50 -2 33
-4z m90 0 c-7 -2 -21 -2 -30 0 -10 3 -4 5 12 5 17 0 24 -2 18 -5z m44 1 c-3
-3 -12 -4 -19 -1 -8 3 -5 6 6 6 11 1 17 -2 13 -5z m-210 -91 c-2 -16 -4 -3 -4
27 0 30 2 43 4 28 2 -16 2 -40 0 -55z m1083 -40 c124 -126 122 -131 -7 -15
l-83 74 0 -185 c0 -175 -4 -217 -19 -217 -3 0 -6 104 -6 230 0 127 0 230 0
230 0 0 52 -53 115 -117z m90 113 c0 -2 -8 -10 -17 -17 -16 -13 -17 -12 -4 4
13 16 21 21 21 13z m-510 -19 c0 -2 -10 -12 -22 -23 l-23 -19 19 23 c18 21 26
27 26 19z m120 -1 c0 -2 -8 -10 -17 -17 -16 -13 -17 -12 -4 4 13 16 21 21 21
13z m30 0 c0 -2 -8 -10 -17 -17 -16 -13 -17 -12 -4 4 13 16 21 21 21 13z
m-1459 -29 c-10 -9 -11 -8 -5 6 3 10 9 15 12 12 3 -3 0 -11 -7 -18z m466 1
c-3 -8 -6 -5 -6 6 -1 11 2 17 5 13 3 -3 4 -12 1 -19z m1673 -18 c-11 -22 -23
-40 -26 -40 -3 0 -2 5 1 10 3 6 1 10 -5 10 -6 0 -9 -12 -8 -27 2 -15 -2 -28
-8 -28 -6 0 -48 -37 -94 -82 -46 -46 -88 -83 -94 -83 -5 0 3 13 19 30 15 16
33 27 38 23 6 -3 7 -1 3 5 -3 5 22 35 56 66 35 31 58 56 53 56 -6 0 -53 -43
-105 -96 -52 -53 -90 -94 -83 -90 6 3 15 1 19 -5 4 -7 3 -9 -4 -5 -6 3 -13 2
-17 -4 -4 -6 -10 -8 -14 -6 -4 3 -28 -15 -52 -40 -24 -25 -62 -59 -84 -76 -22
-17 62 72 187 196 125 124 230 226 233 226 3 0 -4 -18 -15 -40z m-1192 -8 c24
22 24 22 14 2 -19 -35 -44 -39 -69 -9 -13 14 -23 31 -23 36 0 6 12 -4 26 -21
l27 -31 25 23z m-23 28 c-3 -5 -1 -10 4 -10 6 0 11 5 11 10 0 6 5 10 12 10 6
0 3 -9 -7 -20 -14 -16 -21 -17 -32 -8 -11 9 -11 13 -1 19 17 11 20 11 13 -1z
m535 -4 c0 -2 -8 -10 -17 -17 -16 -13 -17 -12 -4 4 13 16 21 21 21 13z m42
-41 c3 -14 1 -28 -3 -31 -5 -3 -9 9 -9 25 0 38 6 40 12 6z m-1233 -19 c9 -10
7 -17 -6 -27 -16 -13 -17 -12 -4 4 9 11 10 17 2 17 -6 0 -11 5 -11 10 0 14 5
13 19 -4z m1084 -3 c-18 -2 -48 -2 -65 0 -18 2 -4 4 32 4 36 0 50 -2 33 -4z
m115 0 c-10 -2 -26 -2 -35 0 -10 3 -2 5 17 5 19 0 27 -2 18 -5z m-740 -20
c-15 -2 -42 -2 -60 0 -18 2 -6 4 27 4 33 0 48 -2 33 -4z m235 0 c-23 -2 -64
-2 -90 0 -26 2 -7 3 42 3 50 0 71 -1 48 -3z m-496 -50 c-3 -10 -5 -2 -5 17 0
19 2 27 5 18 2 -10 2 -26 0 -35z m180 5 c-3 -7 -5 -2 -5 12 0 14 2 19 5 13 2
-7 2 -19 0 -25z m210 -20 c-3 -8 -6 -5 -6 6 -1 11 2 17 5 13 3 -3 4 -12 1 -19z
m-210 -20 c-3 -8 -6 -5 -6 6 -1 11 2 17 5 13 3 -3 4 -12 1 -19z m-747 -8 c-8
-5 -54 -10 -102 -10 l-88 0 1 -96 c0 -57 -4 -101 -10 -107 -8 -8 -11 22 -11
106 l0 117 113 0 c76 0 107 -3 97 -10z m265 1 c-6 -6 -50 -11 -100 -13 l-90
-3 -1 -98 c-2 -149 -22 -147 -23 2 l-1 121 112 0 c70 0 108 -4 103 -9z m1380
-3 c-13 -8 -78 -11 -199 -10 -160 2 -177 0 -172 -14 4 -12 2 -15 -9 -10 -13 4
-15 -8 -16 -82 -1 -48 -1 -92 0 -99 1 -6 -3 -14 -8 -17 -6 -4 -11 41 -13 119
l-3 125 220 0 c172 -1 216 -3 200 -12z m199 -13 c-4 -8 -11 -15 -16 -15 -6 0
-5 6 2 15 7 8 14 15 16 15 2 0 1 -7 -2 -15z m336 -8 c0 -2 -19 -21 -42 -42
l-43 -40 40 43 c36 39 45 47 45 39z m-1660 -29 c0 6 5 12 11 12 8 0 8 -5 -1
-15 -7 -8 -16 -12 -21 -9 -5 3 -9 1 -9 -4 0 -5 -18 -23 -40 -41 -51 -41 -51
-32 2 25 30 33 44 41 50 32 6 -10 8 -10 8 0z m288 5 c-10 -2 -26 -2 -35 0 -10
3 -2 5 17 5 19 0 27 -2 18 -5z m1292 4 c0 -2 -12 -14 -27 -28 l-28 -24 24 28
c23 25 31 32 31 24z m-300 -11 c0 -2 -8 -10 -17 -17 -16 -13 -17 -12 -4 4 13
16 21 21 21 13z m379 -22 c-13 -14 -36 -34 -50 -45 -25 -17 -28 -17 -40 -2
-12 14 -11 15 6 10 14 -5 32 4 60 28 48 41 57 45 24 9z m-2280 3 c-2 -1 -13
-9 -24 -17 -19 -14 -19 -14 -6 3 7 9 18 17 24 17 6 0 8 -1 6 -3z m898 -3 c-3
-3 -12 -4 -19 -1 -8 3 -5 6 6 6 11 1 17 -2 13 -5z m234 -17 c-10 -9 -11 -8 -5
6 3 10 9 15 12 12 3 -3 0 -11 -7 -18z m-1121 -11 c0 -3 -4 -8 -10 -11 -5 -3
-10 -1 -10 4 0 6 5 11 10 11 6 0 10 -2 10 -4z m1150 -15 c0 -5 -7 -12 -16 -15
-14 -5 -15 -4 -4 9 14 17 20 19 20 6z m-1139 -24 c-10 -9 -11 -8 -5 6 3 10 9
15 12 12 3 -3 0 -11 -7 -18z m1889 19 c0 -2 -8 -10 -17 -17 -16 -13 -17 -12
-4 4 13 16 21 21 21 13z m-203 -46 c1 -17 -2 -30 -7 -30 -11 0 -14 43 -3 53 3
4 7 7 7 7 1 0 2 -14 3 -30z m770 -82 c-3 -7 -5 -2 -5 12 0 14 2 19 5 13 2 -7
2 -19 0 -25z m-652 -75 c-11 -3 -27 -10 -35 -17 -13 -10 -13 -9 -1 7 7 9 23
16 35 16 20 -1 20 -2 1 -6z m85 -12 c0 -9 -41 -23 -49 -16 -3 4 28 20 47 24 1
1 2 -3 2 -8z m-456 -33 c-16 -18 -32 -37 -36 -42 -5 -6 -8 -6 -8 0 0 12 56 74
66 74 4 0 -5 -15 -22 -32z m-1427 6 c14 -14 5 -57 -10 -47 -6 4 -8 0 -4 -10 4
-11 2 -14 -9 -10 -7 3 -14 1 -14 -4 0 -5 -13 -8 -29 -5 -39 5 -48 39 -18 69
23 23 64 26 84 7z m1793 7 c0 -5 -7 -12 -16 -15 -24 -9 -28 -7 -14 9 14 17 30
20 30 6z m-1435 -11 c11 -19 -6 -50 -31 -56 -47 -12 -96 31 -67 59 10 11 91 8
98 -3z m275 -6 c0 -2 -9 -4 -21 -4 -11 0 -18 4 -14 10 5 8 35 3 35 -6z m1628
4 c-3 -7 -15 -15 -28 -16 -21 -3 -22 -2 -11 12 16 19 44 21 39 4z m-2103 -28
c-18 -20 -45 -27 -45 -12 0 6 35 25 59 31 2 1 -4 -8 -14 -19z m989 11 c3 -5
-1 -11 -9 -15 -8 -3 -15 0 -15 6 0 18 -17 -3 -22 -27 -5 -18 -6 -19 -13 -2
-13 31 42 67 59 38z m696 5 c0 -2 -8 -10 -17 -17 -16 -13 -17 -12 -4 4 13 16
21 21 21 13z m431 -36 c-13 -11 -31 -20 -40 -20 -9 0 0 8 19 19 46 24 50 24
21 1z"/>
<path d="M1430 2670 c-9 -6 -10 -10 -3 -10 6 0 15 5 18 10 8 12 4 12 -15 0z"/>
<path d="M470 2971 c0 -6 5 -13 10 -16 6 -3 10 1 10 9 0 9 -4 16 -10 16 -5 0
-10 -4 -10 -9z"/>
<path d="M481 2924 c0 -11 3 -14 6 -6 3 7 2 16 -1 19 -3 4 -6 -2 -5 -13z"/>
<path d="M470 2666 c0 -8 4 -17 9 -21 6 -3 9 4 8 15 -1 23 -17 28 -17 6z"/>
<path d="M2780 2938 c0 -4 4 -8 9 -8 6 0 12 4 15 8 3 5 -1 9 -9 9 -8 0 -15 -4
-15 -9z"/>
<path d="M2443 2838 c-15 -18 -35 -58 -29 -58 2 0 13 16 25 35 20 35 22 46 4
23z"/>
<path d="M2529 2777 c-18 -12 -47 -42 -64 -66 -26 -37 -30 -51 -30 -109 0 -85
25 -124 102 -159 l54 -25 57 29 c67 33 90 68 91 138 1 64 -42 143 -101 185
-49 36 -65 37 -109 7z m112 -34 c10 -12 5 -11 -15 5 -16 12 -36 22 -45 22 -26
0 -63 -30 -53 -43 9 -13 9 -23 0 -47 -4 -8 -9 -24 -12 -34 -5 -14 -10 -16 -17
-9 -13 13 -4 46 17 67 8 8 10 17 5 20 -15 10 -53 -62 -59 -110 -4 -41 -22 -54
-22 -16 0 62 45 137 104 173 26 16 33 16 56 4 15 -7 33 -22 41 -32z"/>
<path d="M2316 2447 c3 -10 9 -15 12 -12 3 3 0 11 -7 18 -10 9 -11 8 -5 -6z"/>
<path d="M2091 2714 c0 -11 3 -14 6 -6 3 7 2 16 -1 19 -3 4 -6 -2 -5 -13z"/>
<path d="M1140 2245 c-24 -29 14 -85 41 -58 9 9 7 11 -9 6 -27 -7 -40 21 -23
48 13 23 8 25 -9 4z"/>
<path d="M1205 2219 c-4 -6 -5 -12 -2 -15 2 -3 7 2 10 11 7 17 1 20 -8 4z"/>
<path d="M1222 2194 c-7 -8 -15 -23 -17 -34 -3 -17 -1 -18 15 -10 10 6 22 15
25 20 4 6 10 8 15 5 5 -3 12 0 16 6 4 8 3 9 -4 5 -7 -4 -12 -2 -12 6 0 7 -7 2
-16 -10 -8 -12 -20 -22 -26 -22 -6 0 -3 9 7 20 10 11 16 22 14 24 -2 2 -10 -2
-17 -10z"/>
<path d="M2230 2095 c0 -8 5 -15 10 -15 6 0 10 7 10 15 0 8 -4 15 -10 15 -5 0
-10 -7 -10 -15z"/>
<path d="M2281 2096 c-10 -11 -9 -14 1 -12 14 2 23 15 15 22 -2 2 -10 -2 -16
-10z"/>
<path d="M2746 1879 c-35 -42 -35 -89 2 -130 40 -45 94 -45 134 0 26 29 29 39
24 70 -4 20 -7 47 -7 60 -1 15 -4 19 -8 12 -6 -9 -11 -8 -21 4 -8 9 -29 15
-55 15 -36 0 -48 -5 -69 -31z"/>
<path d="M687 1672 c-24 -26 -21 -68 5 -86 33 -23 65 -20 84 9 15 23 15 27 0
50 -22 33 -27 32 -13 -5 10 -25 9 -33 -6 -47 -16 -16 -20 -16 -45 -3 -33 19
-40 55 -16 81 9 10 15 19 12 19 -3 0 -12 -8 -21 -18z"/>
<path d="M793 1672 c20 -22 22 -78 5 -102 -7 -9 -3 -5 10 8 12 13 22 29 22 37
0 24 -22 64 -38 70 -13 5 -13 3 1 -13z"/>
<path d="M748 1543 c7 -3 16 -2 19 1 4 3 -2 6 -13 5 -11 0 -14 -3 -6 -6z"/>
<path d="M1135 1690 c-3 -5 0 -19 7 -29 14 -19 14 -19 26 -1 10 16 9 21 -7 30
-13 7 -22 7 -26 0z"/>
<path d="M2608 1586 c-93 -33 -140 -95 -146 -190 -9 -132 85 -237 212 -238 63
-1 111 19 155 63 44 43 64 92 64 154 -1 155 -144 261 -285 211z m161 -32 c87
-44 128 -135 102 -229 -10 -37 -61 -121 -61 -100 0 5 -9 -1 -20 -13 -48 -52
-158 -53 -228 -2 -92 66 -109 220 -35 302 24 26 39 22 17 -4 l-19 -23 22 19
c13 10 20 22 17 27 -5 9 25 27 65 40 48 14 87 9 140 -17z"/>
<path d="M2605 1550 c-3 -6 1 -7 9 -4 18 7 21 14 7 14 -6 0 -13 -4 -16 -10z"/>
<path d="M2695 1470 c-3 -5 -1 -10 4 -10 6 0 11 5 11 10 0 6 -2 10 -4 10 -3 0
-8 -4 -11 -10z"/>
<path d="M1068 1373 c7 -3 16 -2 19 1 4 3 -2 6 -13 5 -11 0 -14 -3 -6 -6z"/>
<path d="M1153 1373 c26 -2 67 -2 90 0 23 2 2 3 -48 3 -49 0 -68 -1 -42 -3z"/>
<path d="M1954 1275 c0 -49 1 -71 3 -48 2 23 2 64 0 90 -2 26 -3 8 -3 -42z"/>
<path d="M1518 1373 c50 -2 134 -2 185 0 50 1 9 3 -93 3 -102 0 -143 -2 -92
-3z"/>
<path d="M1393 690 c0 -25 2 -35 4 -22 2 12 2 32 0 45 -2 12 -4 2 -4 -23z"/>
<path d="M1391 604 c0 -11 3 -14 6 -6 3 7 2 16 -1 19 -3 4 -6 -2 -5 -13z"/>
<path d="M2880 901 c0 -5 5 -13 10 -16 6 -3 10 -2 10 4 0 5 -4 13 -10 16 -5 3
-10 2 -10 -4z"/>
<path d="M890 407 c0 -33 53 -50 78 -25 25 25 13 38 -33 38 -30 0 -45 -4 -45
-13z"/>
<path d="M2614 3173 c-6 -5 -16 -18 -23 -31 -10 -19 -10 -28 3 -48 30 -45 101
-44 112 3 12 47 -54 102 -92 76z m56 -24 c0 -5 -3 -8 -7 -8 -20 3 -26 -2 -13
-11 13 -8 13 -10 -1 -10 -9 0 -22 7 -30 16 -10 13 -10 17 0 24 16 9 51 2 51
-11z m-25 -49 c3 -5 -4 -6 -15 -3 -11 3 -22 9 -25 13 -3 5 4 6 15 3 11 -3 22
-9 25 -13z"/>
<path d="M596 3154 c-11 -28 -6 -71 9 -84 37 -31 77 20 56 73 -12 31 -55 38
-65 11z m34 -3 c0 -5 -7 -14 -15 -21 -16 -14 -18 -10 -9 14 6 17 24 22 24 7z"/>
<path d="M1296 3153 c-11 -11 -6 -23 9 -23 8 0 15 4 15 9 0 13 -16 22 -24 14z"/>
<path d="M1787 3148 c-35 -13 -32 -42 4 -46 29 -3 54 20 45 43 -6 17 -10 17
-49 3z m18 -18 c-3 -5 -12 -10 -18 -10 -7 0 -6 4 3 10 19 12 23 12 15 0z"/>
<path d="M1894 3145 c-4 -9 -2 -21 4 -27 15 -15 44 -1 40 19 -4 23 -36 29 -44
8z"/>
<path d="M2242 3151 c2 -7 7 -12 11 -12 12 1 9 15 -3 20 -7 2 -11 -2 -8 -8z"/>
<path d="M2440 3137 c0 -46 55 -71 101 -47 22 12 26 58 5 66 -8 3 -24 1 -35
-5 -13 -7 -22 -8 -26 -1 -3 5 -15 10 -26 10 -13 0 -19 -7 -19 -23z m90 -2 c-7
-8 -22 -15 -34 -15 -17 1 -16 3 9 15 39 18 40 18 25 0z"/>
<path d="M1641 3141 c-17 -11 -7 -41 13 -41 21 0 27 15 13 33 -8 11 -17 14
-26 8z"/>
<path d="M822 3128 c-19 -19 -14 -34 14 -46 43 -20 83 15 52 46 -7 7 -21 12
-33 12 -12 0 -26 -5 -33 -12z"/>
<path d="M968 3113 c-43 -29 -46 -38 -20 -52 14 -8 28 -4 56 15 31 21 35 28
26 44 -13 25 -17 25 -62 -7z m42 3 c0 -3 -15 -14 -32 -26 l-33 -22 30 26 c31
27 35 29 35 22z"/>
<path d="M1572 3119 c2 -7 10 -15 17 -17 8 -3 12 1 9 9 -2 7 -10 15 -17 17 -8
3 -12 -1 -9 -9z"/>
<path d="M502 3105 c-8 -10 -9 -15 -2 -15 6 0 8 -4 5 -10 -3 -5 0 -10 8 -10 8
0 17 7 20 14 4 10 1 13 -9 9 -10 -4 -12 0 -8 11 8 20 3 20 -14 1z"/>
<path d="M732 3111 c4 -13 18 -16 19 -4 0 4 -5 9 -11 12 -7 2 -11 -2 -8 -8z"/>
<path d="M1060 3111 c0 -6 5 -13 10 -16 6 -3 10 1 10 9 0 9 -4 16 -10 16 -5 0
-10 -4 -10 -9z"/>
<path d="M1330 3105 c0 -8 7 -15 15 -15 9 0 12 6 9 15 -4 8 -10 15 -15 15 -5
0 -9 -7 -9 -15z"/>
<path d="M2280 3110 c0 -5 5 -10 10 -10 6 0 10 5 10 10 0 6 -4 10 -10 10 -5 0
-10 -4 -10 -10z"/>
<path d="M2360 3110 c0 -5 7 -10 15 -10 8 0 15 5 15 10 0 6 -7 10 -15 10 -8 0
-15 -4 -15 -10z"/>
<path d="M2866 3112 c-3 -6 -1 -14 5 -17 15 -10 25 3 12 16 -7 7 -13 7 -17 1z"/>
<path d="M1990 3096 c0 -9 5 -16 10 -16 6 0 10 4 10 9 0 6 -4 13 -10 16 -5 3
-10 -1 -10 -9z"/>
<path d="M376 3062 c-3 -6 -1 -14 5 -17 15 -10 25 3 12 16 -7 7 -13 7 -17 1z"/>
<path d="M334 2915 c-7 -18 13 -45 33 -45 19 0 28 27 13 45 -16 19 -39 19 -46
0z"/>
<path d="M3133 2830 c0 -33 11 -40 21 -13 4 9 1 23 -7 30 -12 12 -14 9 -14
-17z"/>
<path d="M3110 2830 c0 -5 5 -10 10 -10 6 0 10 5 10 10 0 6 -4 10 -10 10 -5 0
-10 -4 -10 -10z"/>
<path d="M330 2771 c-15 -30 -12 -66 8 -92 30 -36 52 -19 52 39 0 66 -36 98
-60 53z m22 -31 c-2 -16 -6 -30 -8 -30 -2 0 -4 14 -4 30 0 17 4 30 8 30 5 0 7
-13 4 -30z"/>
<path d="M3122 2708 c6 -18 28 -21 28 -4 0 9 -7 16 -16 16 -9 0 -14 -5 -12
-12z"/>
<path d="M3052 2637 c-11 -13 -12 -76 -2 -78 70 -11 96 7 77 54 -15 35 -55 48
-75 24z m43 -7 c10 -16 -16 -43 -28 -31 -11 11 -2 41 12 41 5 0 13 -5 16 -10z"/>
<path d="M350 2599 c0 -6 -4 -7 -10 -4 -5 3 -10 -1 -10 -9 0 -21 18 -30 35
-16 19 16 19 26 0 34 -8 3 -15 1 -15 -5z"/>
<path d="M3053 2505 c-28 -20 -46 -75 -34 -106 12 -32 40 -56 74 -64 23 -6 33
-2 63 31 31 33 35 42 30 73 -10 67 -82 102 -133 66z m88 -16 l24 -20 -28 17
c-36 22 -72 7 -92 -39 -12 -27 -14 -29 -15 -9 0 28 42 72 68 72 11 0 30 -9 43
-21z m-31 -13 c0 -2 -9 -6 -20 -9 -11 -3 -18 -1 -14 4 5 9 34 13 34 5z"/>
<path d="M355 2481 c-7 -12 12 -24 25 -16 11 7 4 25 -10 25 -5 0 -11 -4 -15
-9z"/>
<path d="M352 2398 c-8 -8 -9 -15 -1 -25 18 -21 41 -16 37 9 -4 26 -19 33 -36
16z"/>
<path d="M310 2345 c0 -8 5 -15 10 -15 6 0 10 7 10 15 0 8 -4 15 -10 15 -5 0
-10 -7 -10 -15z"/>
<path d="M3012 2305 c0 -16 2 -22 5 -12 2 9 2 23 0 30 -3 6 -5 -1 -5 -18z"/>
<path d="M324 2246 c-9 -24 3 -46 26 -46 17 0 21 5 18 27 -3 31 -34 44 -44 19z"/>
<path d="M360 2120 c0 -5 7 -10 15 -10 8 0 15 5 15 10 0 6 -7 10 -15 10 -8 0
-15 -4 -15 -10z"/>
<path d="M320 2105 c0 -8 5 -15 10 -15 6 0 10 7 10 15 0 8 -4 15 -10 15 -5 0
-10 -7 -10 -15z"/>
<path d="M370 2040 c0 -5 5 -10 10 -10 6 0 10 5 10 10 0 6 -4 10 -10 10 -5 0
-10 -4 -10 -10z"/>
<path d="M362 1937 c-14 -16 -6 -27 20 -27 13 0 18 6 16 17 -4 22 -22 27 -36
10z"/>
<path d="M376 1893 c-11 -11 -6 -23 9 -23 8 0 15 4 15 9 0 13 -16 22 -24 14z"/>
<path d="M300 1750 c0 -5 7 -10 16 -10 8 0 12 5 9 10 -3 6 -10 10 -16 10 -5 0
-9 -4 -9 -10z"/>
<path d="M354 1685 c-4 -9 -2 -21 4 -27 15 -15 44 -1 40 19 -4 23 -36 29 -44
8z"/>
<path d="M320 1640 c0 -5 7 -10 16 -10 8 0 12 5 9 10 -3 6 -10 10 -16 10 -5 0
-9 -4 -9 -10z"/>
<path d="M339 1558 c-1 -2 -3 -15 -4 -29 -3 -22 0 -26 20 -26 28 0 45 34 24
48 -13 8 -38 12 -40 7z m21 -19 c0 -5 5 -7 10 -4 6 3 10 1 10 -4 0 -13 -3 -13
-24 -5 -18 7 -22 24 -6 24 6 0 10 -5 10 -11z"/>
<path d="M330 1385 c-15 -18 -5 -35 20 -35 26 0 33 16 14 34 -19 19 -19 19
-34 1z"/>
<path d="M336 1267 c-28 -20 -19 -98 14 -114 17 -8 28 -9 37 -1 18 15 16 93
-3 112 -19 19 -25 20 -48 3z"/>
<path d="M342 1054 c-17 -19 -6 -54 18 -54 20 0 32 22 24 44 -8 21 -27 25 -42
10z m22 -19 c-4 -8 -8 -15 -10 -15 -2 0 -4 7 -4 15 0 8 4 15 10 15 5 0 7 -7 4
-15z"/>
<path d="M3132 970 c0 -19 2 -27 5 -17 2 9 2 25 0 35 -3 9 -5 1 -5 -18z"/>
<path d="M330 921 c-5 -11 -10 -51 -10 -89 0 -54 4 -75 19 -93 16 -20 23 -22
38 -13 15 9 19 27 21 99 3 91 -5 115 -39 115 -10 0 -23 -9 -29 -19z m25 -81
c0 -44 -3 -80 -7 -80 -5 0 -8 36 -8 80 0 44 3 80 8 80 4 0 7 -36 7 -80z"/>
<path d="M351 641 c-19 -12 -6 -41 17 -41 26 0 33 10 21 31 -11 21 -18 23 -38
10z"/>
<path d="M330 545 c0 -8 5 -15 10 -15 6 0 10 7 10 15 0 8 -4 15 -10 15 -5 0
-10 -7 -10 -15z"/>
<path d="M2665 429 c-4 -6 -4 -13 -1 -16 3 -4 6 -1 6 6 0 7 5 9 12 5 7 -4 8
-3 4 4 -9 15 -13 15 -21 1z"/>
<path d="M1305 420 c3 -5 8 -10 11 -10 2 0 4 5 4 10 0 6 -5 10 -11 10 -5 0 -7
-4 -4 -10z"/>
<path d="M2223 411 c0 -11 5 -18 9 -15 4 3 5 11 1 19 -7 21 -12 19 -10 -4z"/>
<path d="M1127 394 c-8 -8 1 -24 14 -24 5 0 9 7 9 15 0 15 -12 20 -23 9z"/>
<path d="M1047 384 c-8 -8 1 -24 14 -24 5 0 9 7 9 15 0 15 -12 20 -23 9z"/>
<path d="M440 370 c0 -5 5 -10 10 -10 6 0 10 5 10 10 0 6 -4 10 -10 10 -5 0
-10 -4 -10 -10z"/>
<path d="M1902 368 c6 -18 28 -21 28 -4 0 9 -7 16 -16 16 -9 0 -14 -5 -12 -12z"/>
<path d="M2215 360 c-4 -6 -1 -18 6 -26 12 -14 14 -14 26 2 7 9 10 21 7 25 -7
12 -31 11 -39 -1z"/>
<path d="M446 332 c-3 -6 -1 -14 5 -17 15 -10 25 3 12 16 -7 7 -13 7 -17 1z"/>
<path d="M1100 316 c0 -9 7 -16 16 -16 17 0 14 22 -4 28 -7 2 -12 -3 -12 -12z"/>
<path d="M3440 90 c0 -17 -7 -20 -40 -20 -39 0 -40 -1 -40 -35 l0 -35 75 0 75
0 0 55 0 55 -35 0 c-28 0 -35 -4 -35 -20z"/>
</g>
</svg>
