<?xml version="1.0" standalone="no"?>
<!DOCTYPE svg PUBLIC "-//W3C//DTD SVG 20010904//EN"
 "http://www.w3.org/TR/2001/REC-SVG-20010904/DTD/svg10.dtd">
<svg version="1.0" xmlns="http://www.w3.org/2000/svg"
 width="351.000000pt" height="351.000000pt" viewBox="0 0 351.000000 351.000000"
 preserveAspectRatio="xMidYMid meet">

<g transform="translate(0.000000,351.000000) scale(0.100000,-0.100000)"
fill="#000000" stroke="none">
<path d="M1625 2839 c-298 -37 -594 -218 -766 -467 -342 -494 -224 -1175 261
-1508 206 -142 411 -208 640 -207 233 2 439 68 639 206 317 219 496 613 452
993 -71 617 -622 1058 -1226 983z m235 -119 c163 -20 305 -73 440 -162 47 -32
64 -37 123 -40 37 -1 67 -7 67 -13 0 -5 -5 -27 -11 -48 -10 -36 -8 -40 39
-100 232 -292 281 -684 126 -1016 -56 -119 -113 -198 -205 -286 -122 -116
-253 -192 -416 -242 -81 -25 -101 -27 -263 -27 -162 0 -182 2 -263 27 -276 85
-505 277 -622 521 -90 188 -114 439 -63 645 71 285 286 541 555 662 84 38 194
68 282 79 97 11 118 11 211 0z"/>
<path d="M1704 2582 c-49 -39 -54 -94 -12 -139 43 -46 137 -19 152 43 20 78
-79 146 -140 96z"/>
<path d="M2152 2449 c-168 -21 -329 -115 -388 -224 -10 -19 -21 -35 -24 -35
-3 0 -14 16 -25 36 -24 46 -96 109 -158 141 -53 27 -170 59 -232 65 l-40 3 3
-35 c21 -236 59 -348 146 -436 78 -78 145 -105 255 -104 47 1 93 -5 119 -15
195 -71 416 30 513 233 28 58 89 307 89 365 0 15 -11 17 -97 16 -54 -1 -127
-5 -161 -10z m131 -81 c-4 -7 -8 -17 -8 -22 0 -4 -29 -29 -65 -54 -36 -26 -59
-39 -53 -31 7 9 10 18 7 21 -3 3 0 9 7 14 8 5 10 3 4 -6 -5 -8 -3 -11 6 -8 8
3 14 11 14 19 0 8 9 14 20 14 11 0 20 6 20 13 0 7 11 22 25 32 29 23 34 24 23
8z m-147 -10 c5 -7 3 -8 -6 -3 -9 5 -10 2 -5 -14 4 -13 2 -21 -5 -21 -8 0 -10
-10 -8 -25 3 -13 1 -22 -3 -19 -5 3 -9 -3 -9 -12 0 -10 -7 -26 -16 -36 -18
-19 -15 -22 36 -32 15 -3 10 -4 -11 -3 -19 2 -40 -1 -45 -6 -53 -46 -137 -98
-145 -90 -7 7 0 18 22 34 18 12 29 17 24 10 -5 -9 -3 -12 6 -9 8 3 14 10 14
16 0 6 7 17 15 24 12 11 12 11 1 -4 -7 -10 -9 -18 -3 -18 13 0 33 25 26 32 -3
3 8 15 25 27 22 16 34 37 46 79 26 92 27 93 41 70z m-639 -103 l78 -85 5 33
c8 49 38 43 74 -16 26 -42 31 -62 37 -150 4 -56 5 -104 3 -106 -12 -13 -93 3
-137 26 -46 25 -107 91 -107 116 0 6 25 7 66 2 45 -5 65 -3 63 4 -2 5 -24 35
-49 65 -29 35 -53 55 -67 56 -27 0 -38 17 -24 34 8 10 6 18 -10 32 -38 34 -48
74 -19 74 5 0 44 -38 87 -85z m410 -32 c2 -25 1 -26 -8 -8 -7 15 -8 10 -4 -20
3 -30 2 -36 -6 -25 -8 11 -9 7 -7 -17 3 -18 1 -30 -4 -27 -4 3 -8 -3 -8 -12 0
-10 -2 -15 -5 -12 -5 5 1 40 20 126 7 31 20 28 22 -5z m228 17 c-3 -5 -16 -15
-28 -21 -19 -9 -19 -8 3 10 28 23 34 26 25 11z m95 -48 c0 -4 -18 -6 -40 -4
-22 2 -40 6 -40 8 0 2 18 4 40 4 22 0 40 -3 40 -8z m-384 -140 c-15 -15 -15
-15 -4 10 7 15 15 23 17 17 2 -6 -4 -18 -13 -27z m221 -2 c33 -11 -59 -2 -122
11 -30 6 -23 7 27 3 37 -3 80 -9 95 -14z m-192 0 c-11 -18 -95 -71 -95 -60 0
5 5 10 11 10 5 0 8 4 5 9 -3 5 2 15 11 22 12 10 14 10 9 2 -11 -20 9 -15 35 7
27 22 33 24 24 10z"/>
<path d="M2245 2340 c-3 -5 -2 -10 4 -10 5 0 13 5 16 10 3 6 2 10 -4 10 -5 0
-13 -4 -16 -10z"/>
<path d="M1934 2115 c-10 -8 -14 -15 -8 -15 6 0 17 7 24 15 16 19 9 19 -16 0z"/>
<path d="M1082 2288 c-15 -15 -15 -51 0 -66 18 -18 53 -14 73 8 17 18 17 21 1
45 -18 27 -54 33 -74 13z"/>
<path d="M1257 2044 c-15 -8 -27 -17 -27 -20 0 -2 14 2 30 11 17 9 30 13 30
10 0 -2 -18 -14 -41 -26 -23 -11 -38 -15 -34 -9 4 6 -11 2 -34 -9 -23 -12 -41
-24 -41 -26 0 -3 14 1 30 10 52 27 33 8 -25 -24 -61 -35 -86 -41 -40 -11 48
32 25 23 -61 -23 l-79 -42 -3 -262 -2 -261 27 -20 c16 -10 129 -81 251 -156
l224 -138 19 21 c42 45 100 11 112 -66 6 -34 14 -42 77 -80 39 -24 76 -43 82
-43 12 0 134 65 526 282 l252 140 0 224 c0 223 0 224 -23 235 -19 8 -38 2
-120 -41 -58 -31 -95 -56 -91 -62 4 -7 2 -8 -5 -4 -13 9 -213 -93 -205 -105 3
-5 -1 -7 -8 -4 -17 6 -150 -69 -141 -80 5 -4 2 -5 -5 -1 -7 4 -48 -12 -98 -39
-62 -33 -89 -43 -98 -36 -7 6 -17 7 -21 3 -5 -4 -5 -2 -2 4 7 13 -66 57 -78
46 -5 -4 -5 -2 -2 4 6 10 -59 50 -75 46 -5 -1 -8 2 -8 8 0 13 -56 41 -65 32
-5 -4 -4 -1 0 7 6 11 4 13 -9 8 -9 -4 -15 -3 -12 2 5 8 -74 57 -86 53 -5 -1
-8 2 -8 7 0 11 -100 74 -117 74 -7 0 -10 4 -7 8 5 8 -35 25 -51 20 -5 -1 -7 1
-3 5 9 8 -63 55 -73 48 -4 -2 -9 3 -13 11 -3 8 -15 15 -26 15 -13 0 -18 4 -15
11 4 6 1 9 -7 7 -7 -2 -15 2 -17 7 -5 12 -33 34 -44 35 -5 0 -5 -4 -2 -10 4
-6 -1 -7 -11 -3 -11 4 -13 8 -6 11 7 2 9 8 6 14 -12 18 21 -1 475 -280 l293
-181 32 16 c103 52 672 357 679 363 5 4 -33 33 -83 65 -84 53 -93 57 -116 45
-13 -8 -24 -16 -24 -20 0 -3 19 -17 42 -30 l41 -23 -44 -23 c-24 -12 -48 -19
-54 -16 -5 3 5 10 22 14 42 11 49 24 21 42 -27 18 -71 15 -96 -6 -16 -13 -41
-23 -145 -57 -45 -15 -158 -7 -225 16 -55 18 -228 21 -262 4 -23 -11 -24 -11
-6 3 23 18 24 16 -37 46 -27 12 -60 32 -75 45 -15 12 -35 25 -45 28 -10 4 -16
11 -12 16 3 5 0 13 -6 17 -8 4 -9 3 -5 -4 9 -15 -6 -16 -21 -1 -8 8 -22 4 -52
-13 -22 -12 -41 -26 -41 -30 0 -12 14 -9 29 5 10 8 12 8 7 0 -3 -6 -2 -14 4
-18 6 -4 8 -11 5 -16 -4 -5 -16 -2 -29 6 -20 14 -25 14 -35 1 -17 -20 -9 -31
45 -62 45 -26 57 -38 27 -27 -12 5 -14 3 -8 -7 5 -9 4 -11 -4 -6 -6 4 -8 12
-5 18 5 8 1 9 -10 5 -10 -4 -15 -3 -11 3 6 10 -9 15 -30 10 -5 -1 -7 2 -2 6 4
4 0 16 -10 26 -15 17 -15 19 3 39 19 21 19 21 -9 8 -15 -7 -27 -16 -27 -21 0
-5 -4 -7 -9 -4 -5 4 -11 2 -13 -4 -2 -6 -9 -6 -18 0 -18 11 -24 6 90 70 52 29
96 54 98 56 5 3 -26 62 -35 67 -5 3 -20 -1 -36 -9z m58 -114 c-3 -5 -12 -10
-18 -10 -7 0 -6 4 3 10 19 12 23 12 15 0z m-245 -5 c0 -2 -18 -14 -40 -25 -22
-11 -40 -18 -40 -15 0 2 17 13 38 24 42 23 42 23 42 16z m290 -31 c0 -2 -9 0
-20 6 -11 6 -20 13 -20 16 0 2 9 0 20 -6 11 -6 20 -13 20 -16z m25 -77 c16
-15 -48 20 -70 38 -11 9 -2 7 20 -6 22 -12 45 -26 50 -32z m55 -33 c0 -2 -9 0
-20 6 -11 6 -20 13 -20 16 0 2 9 0 20 -6 11 -6 20 -13 20 -16z m436 -70 c96
-58 123 -79 111 -85 -15 -9 -40 -2 -82 24 -11 7 -44 25 -73 41 -32 18 -51 35
-48 42 3 8 0 16 -6 20 -7 5 -8 2 -3 -6 6 -10 2 -11 -19 -6 -15 4 -26 2 -26 -4
0 -5 -7 -10 -15 -10 -8 0 -15 -7 -15 -15 0 -8 -5 -15 -11 -15 -5 0 -8 -4 -5
-9 4 -5 -3 -7 -14 -4 -21 6 -43 -28 -23 -34 5 -2 19 -11 29 -19 14 -11 9 -10
-16 2 -41 21 -65 19 -92 -6 -17 -15 -25 -17 -44 -8 -14 6 -23 16 -21 22 2 8
185 116 244 145 1 1 59 -33 129 -75z m-516 43 c0 -2 -8 -3 -18 -3 -10 0 -19 6
-19 13 0 8 6 9 19 2 10 -5 18 -11 18 -12z m149 19 c-15 -13 -49 -25 -49 -17 0
5 8 12 18 14 24 6 36 8 31 3z m697 -21 c-11 -8 -25 -15 -30 -15 -6 0 -22 -9
-36 -20 -28 -22 -50 -26 -50 -8 0 6 3 9 6 5 9 -9 66 22 59 32 -3 5 3 7 14 4
10 -3 22 0 25 6 4 6 13 11 19 11 7 0 3 -7 -7 -15z m-156 -10 c17 -9 30 -18 30
-21 0 -4 -59 23 -69 32 -10 9 13 3 39 -11z m-624 -4 c8 6 17 9 21 5 3 -3 2 -6
-3 -6 -6 0 -20 -9 -32 -20 -21 -20 -34 -14 -38 17 -2 10 3 10 18 2 14 -7 23
-7 34 2z m609 -31 c3 -5 -10 -1 -29 11 -20 12 -36 23 -36 25 0 7 58 -25 65
-36z m-780 -125 c99 -61 231 -142 293 -179 61 -38 112 -70 112 -72 0 -1 -6 -6
-12 -10 -7 -4 -10 -3 -6 1 8 8 -121 92 -134 87 -5 -1 -8 2 -8 6 0 11 -75 53
-84 47 -3 -3 -4 -2 -1 2 3 4 -30 27 -73 52 -42 25 -92 56 -109 69 -17 12 -35
22 -41 22 -5 0 -15 7 -22 15 -7 9 -19 14 -27 11 -8 -3 -12 -2 -9 3 4 5 -14 21
-39 35 -25 15 -45 29 -45 32 0 3 6 2 13 -2 6 -4 93 -58 192 -119z m540 115 c3
-6 -1 -7 -9 -4 -18 7 -21 14 -7 14 6 0 13 -4 16 -10z m295 -22 c0 -5 -9 -4
-20 2 -11 6 -20 12 -20 14 0 2 9 2 20 -1 11 -3 20 -9 20 -15z m-305 -35 c11
-7 16 -13 12 -13 -10 0 -87 51 -87 57 0 5 27 -11 75 -44z m-626 -66 c-2 -3
-15 10 -28 27 l-24 31 28 -27 c16 -15 27 -29 24 -31z m581 17 c0 -2 -9 0 -20
6 -11 6 -20 13 -20 16 0 2 9 0 20 -6 11 -6 20 -13 20 -16z m189 13 c-23 -19
-161 -87 -150 -74 12 15 10 20 -10 38 l-24 21 31 -21 32 -21 53 30 c45 24 85
40 68 27z m-274 -36 c3 -5 1 -13 -5 -16 -6 -4 -9 -2 -8 4 2 5 -6 17 -17 26
-20 16 -20 16 2 5 12 -5 24 -14 28 -19z m-588 -6 c13 -9 27 -35 33 -58 18 -70
25 -81 94 -141 55 -49 68 -56 81 -46 23 19 18 39 -16 71 -34 31 -31 49 8 49
35 0 89 -57 102 -107 11 -41 59 -93 85 -93 8 0 25 9 39 20 47 37 75 24 115
-56 21 -42 104 -104 137 -104 9 0 39 13 68 29 46 27 58 29 112 24 55 -5 63 -3
92 21 20 17 35 40 39 61 3 18 12 36 20 39 8 3 14 15 14 26 0 17 4 20 20 15 14
-5 68 19 180 79 88 47 163 86 165 86 3 0 5 -29 5 -64 l0 -65 -66 -34 c-58 -32
-68 -34 -90 -22 -32 16 -61 9 -81 -21 -8 -13 -23 -24 -33 -24 -20 0 -45 -26
-54 -57 -8 -26 -20 -33 -227 -146 l-157 -84 -45 28 c-32 20 -52 41 -65 71 -35
79 -106 118 -162 88 -16 -8 -57 13 -234 122 l-216 133 0 88 c0 48 3 87 8 87 4
0 17 -7 29 -15z m643 -26 l25 -21 -27 16 c-32 19 -42 20 -32 4 4 -7 3 -8 -5
-4 -11 7 -6 26 7 26 4 0 18 -10 32 -21z m-475 -21 c-11 -6 -28 -18 -37 -26
-10 -8 -18 -11 -18 -6 0 10 50 43 65 43 6 0 1 -5 -10 -11z m95 -18 c8 -5 11
-10 5 -10 -5 0 -17 5 -25 10 -8 5 -10 10 -5 10 6 0 17 -5 25 -10z m169 -143
c-2 -1 -15 -11 -29 -22 l-25 -20 19 23 c11 12 24 22 29 22 6 0 8 -1 6 -3z m87
-13 c18 -14 18 -14 -6 -3 -31 14 -36 19 -24 19 6 0 19 -7 30 -16z m134 -50 c0
-1 -6 -6 -12 -10 -7 -4 -10 -4 -6 1 4 4 -3 16 -15 27 l-22 19 28 -17 c15 -9
27 -18 27 -20z m20 -106 c0 -4 -16 2 -35 13 -19 12 -35 25 -35 30 0 10 69 -33
70 -43z"/>
<path d="M1810 1727 c18 -17 160 -95 145 -80 -5 6 -44 30 -85 53 -41 23 -68
35 -60 27z"/>
<path d="M1602 1679 c-39 -23 -69 -45 -66 -50 3 -5 19 2 36 16 16 14 33 23 38
20 4 -2 15 4 25 15 10 11 24 20 31 20 7 0 16 5 19 10 11 17 -8 10 -83 -31z"/>
</g>
</svg>
